<svg style="fill-rule:evenodd;clip-rule:evenodd;stroke-linejoin:round;stroke-miterlimit:2;" xml:space="preserve" xmlns:xlink="http://www.w3.org/1999/xlink" xmlns="http://www.w3.org/2000/svg" version="1.1" viewBox="0 0 1767 1767" height="100%" width="100%">
    <g transform="matrix(-37.6884,11.5155,-10.2944,-33.692,14739.2,1774.55)">
        <clipPath id="_clip1">
            <path d="M330.568,162.059C319.353,162.821 309.693,153.254 309.012,140.708C308.33,128.162 316.882,117.358 328.098,116.595C339.314,115.833 348.973,125.399 349.654,137.945C350.336,150.491 341.784,161.296 330.568,162.059Z"></path>
        </clipPath>
        <g clip-path="url(#_clip1)">
            <g transform="matrix(-0.0242678,-0.00829442,0.00741489,-0.0271463,511.373,914.726)">
                <rect style="fill:rgb(103,225,146);" height="2058.9" width="1836.61" y="23030.6" x="14040.6"></rect>
            </g>
            <g>
                <g>
                    <g transform="matrix(0.880385,0,0,0.984813,49.9516,-10.1786)">
                        <path style="fill:rgb(255,222,222);fill-rule:nonzero;" d="M325.309,194.338C325.414,194.632 325.267,194.989 324.89,195.452C324.071,196.419 323.274,196.777 322.288,196.609C320.735,196.356 320.4,195.683 318.595,189.059C318.05,187.083 317.399,184.727 317.106,183.802C316.161,180.627 314.504,171.101 314.504,168.829C314.504,168.178 314.525,168.156 315.196,168.283C315.553,168.346 316.329,168.829 316.917,169.334C318.029,170.344 318.595,170.428 319.686,169.713C320.295,169.292 320.295,169.124 319.644,168.766C318.994,168.409 318.973,168.135 319.602,168.135C319.854,168.135 320.211,168.051 320.379,167.925C320.568,167.799 320.798,167.82 321.008,167.988C321.176,168.114 321.344,168.241 321.365,168.241C321.386,168.241 321.512,169.145 321.638,170.238C322.057,173.876 322.498,177.472 322.687,178.755C322.792,179.449 322.938,180.732 323.001,181.594C323.064,182.456 323.295,184.16 323.526,185.379C323.778,186.599 324.092,188.344 324.26,189.27C324.596,191.162 325.12,193.665 325.309,194.338ZM332.044,146.833L332.149,148.473L331.708,147.906C331.016,147.022 329.925,146.434 328.918,146.434C326.841,146.413 325.204,147.359 324.47,149.02L324.071,149.903L324.89,150.555C326.967,152.196 328.561,154.172 329.107,155.728C329.401,156.57 329.38,156.612 328.729,157.516C328.1,158.357 327.974,158.441 327.407,158.315C325.687,157.936 325.477,158.147 325.435,160.271C325.393,161.953 325.015,162.058 324.05,160.67C323.631,160.039 322.372,158.672 321.302,157.621C319.372,155.77 319.33,155.728 319.33,154.761L319.33,153.773L318.595,153.899C318.197,153.962 317.861,153.962 317.861,153.878C317.861,153.794 318.05,153.037 318.281,152.196C318.679,150.723 318.826,149.399 318.574,149.167C318.511,149.104 318.134,149.125 317.735,149.209L317.001,149.378L317.148,148.621C317.232,148.179 317.378,147.737 317.483,147.59C317.714,147.317 317.567,147.212 316.665,147.001C315.805,146.833 314.714,145.824 314.714,145.214C314.714,144.941 315.049,144.436 315.49,144.036C316.518,143.09 317.546,142.943 319.393,143.532C320.924,144.015 321.092,143.994 320.882,143.469C320.651,142.859 319.309,142.396 317.819,142.396C316.497,142.417 316.392,142.375 316.392,141.954C316.392,141.26 315.889,140.735 315.175,140.714C314.651,140.693 314.525,140.588 314.42,140.104C314.357,139.767 314.105,139.263 313.875,138.968C313.644,138.674 313.455,138.295 313.455,138.148C313.455,138.001 314.777,137.202 316.413,136.361C318.029,135.52 319.854,134.489 320.442,134.069L321.533,133.29L321.805,134.363C321.952,134.952 322.414,136.171 322.833,137.076C323.589,138.695 323.652,138.758 324.974,139.41C325.75,139.788 326.904,140.314 327.575,140.588C330.24,141.639 331.876,143.91 332.044,146.833ZM326.778,159.219C326.946,159.303 327.093,159.366 327.093,159.408C327.093,159.429 326.946,159.577 326.778,159.724C326.505,159.934 326.463,159.913 326.463,159.556C326.463,159.24 326.568,159.135 326.778,159.219ZM323.631,154.698C323.694,154.467 323.421,153.583 323.001,152.658C322.12,150.702 321.449,150.009 321.155,150.766C321.092,150.934 321.26,151.481 321.533,151.985C322.246,153.331 321.994,153.541 320.421,152.847C319.372,152.406 319.057,152.343 318.847,152.553C318.658,152.763 318.679,152.889 319.015,153.121C319.728,153.668 321.281,154.404 322.414,154.74C323.442,155.055 323.505,155.055 323.631,154.698ZM353.277,83.179C353.319,83.179 352.228,84.44 350.843,85.954C349.458,87.489 347.004,90.034 345.409,91.611C342.954,94.05 342.073,94.765 339.576,96.322C337.961,97.352 335.926,98.635 335.065,99.182C334.205,99.728 332.862,100.569 332.086,101.053C330.638,101.936 330.282,102.399 331.142,102.294C332.002,102.168 332.128,102.441 331.708,103.535C331.478,104.081 330.953,105.553 330.534,106.815C329.82,108.897 329.694,109.128 329.065,109.381C328.016,109.822 327.533,109.738 325.939,108.834C323.841,107.656 322.435,106.521 322.246,105.848C322.162,105.511 322.246,104.565 322.477,103.535C322.687,102.567 322.917,101.221 323.001,100.527C323.211,98.53 323.568,97.016 324.008,96.111C324.428,95.249 325.372,94.114 325.666,94.114C326.127,94.114 328.561,92.789 328.561,92.515C328.561,92.158 328.079,92.137 327.449,92.452C327.051,92.684 330.408,88.667 331.142,88.057C331.415,87.826 331.562,87.952 332.107,88.94C333.135,90.707 334.499,92.116 335.947,92.831C336.66,93.188 337.373,93.483 337.562,93.483C337.751,93.483 338.947,92.747 340.206,91.842C341.486,90.959 343.5,89.613 344.717,88.877C345.934,88.141 347.675,87.006 348.598,86.375C351.64,84.272 353.214,83.179 353.277,83.179ZM383.951,71.865C384.749,71.844 384.832,71.865 384.476,72.075C383.574,72.58 381.475,74.262 380.28,75.419C379.587,76.092 378.517,76.891 377.888,77.206L376.755,77.774L371.489,77.606C368.593,77.501 365.362,77.417 364.292,77.417C363.235,77.417 362.404,77.396 362.404,77.375C363.872,76.155 365.383,75.019 366.117,74.599C366.642,74.304 367.565,73.673 368.174,73.232C369.369,72.328 369.831,72.286 371.824,72.979C373.02,73.379 374.929,73.61 374.929,73.358C374.929,73.253 374.804,73.043 374.678,72.895C374.111,72.349 375.16,72.138 379.126,72.033C381.266,71.97 383.427,71.886 383.951,71.865ZM398.953,37.167C398.995,37.209 398.827,37.714 398.554,38.282C397.967,39.522 393.812,43.707 391.714,45.158C390.288,46.147 382.629,50.983 379.524,52.855C378.433,53.507 375.936,54.621 373.335,55.631C370.922,56.577 368.153,57.67 367.166,58.07C366.18,58.491 364.586,59.1 363.6,59.437C361.271,60.215 361.858,60.194 365.215,59.395C367.775,58.785 374.195,56.619 375.769,55.841C376.167,55.652 376.839,55.42 377.237,55.336C377.93,55.21 381.245,53.423 383.007,52.245C383.469,51.951 384.434,51.404 385.147,51.025C385.882,50.668 387.434,49.7 388.609,48.88L390.77,47.408L390.917,48.039C391.106,48.754 392.071,49.427 393.183,49.637C393.812,49.742 394.148,49.616 395.596,48.712C396.519,48.123 397.568,47.492 397.904,47.303L398.533,46.946L398.009,47.555C396.624,49.154 393.372,52.413 392.239,53.296C390.98,54.327 381.937,60.467 381.538,60.572C381.434,60.614 380.426,60.888 379.335,61.203C378.244,61.519 376.503,62.044 375.454,62.381C374.426,62.696 372.663,63.243 371.572,63.58C370.481,63.916 368.761,64.442 367.754,64.757C366.747,65.073 365.761,65.367 365.551,65.409C363.621,65.809 358.669,67.281 357.725,67.701L356.991,68.038L358.459,67.912C359.278,67.827 359.886,67.827 359.823,67.869C359.634,68.08 352.794,71.234 350.654,72.138L348.514,73.022L349.333,71.528C350.13,70.056 353.109,63.537 353.109,63.264C353.109,62.844 359.278,50.794 359.823,50.121C360.641,49.112 362.53,48.081 365.068,47.198C366.159,46.819 367.691,46.252 368.446,45.936C370.083,45.263 372.202,44.632 372.349,44.759C372.58,44.99 370.649,46.147 367.208,47.871C365.173,48.901 363.558,49.721 363.642,49.742C363.726,49.742 364.942,49.322 366.369,48.817C368.782,47.955 371.656,46.672 373.88,45.453C374.405,45.158 376.524,44.086 378.601,43.055C382.525,41.121 386.889,38.723 388.819,37.462C390.078,36.62 390.036,36.641 390.455,36.936C390.728,37.104 390.686,37.188 390.267,37.504C389.994,37.693 389.217,38.282 388.567,38.807C387.896,39.333 386.994,40.027 386.553,40.343C386.091,40.679 384.937,41.541 383.951,42.298C379.168,45.936 378.265,46.588 376.608,47.534C373.629,49.238 368.992,51.383 363.809,53.423C360.662,54.684 361.124,54.684 364.775,53.444C372.412,50.836 373.838,50.247 376.902,48.544C381.329,46.104 382.483,45.305 388.924,40.427C391.253,38.681 391.924,38.261 391.924,38.576C391.924,39.018 393.036,40.258 393.456,40.3C394.442,40.406 395.973,39.817 396.54,39.123C396.98,38.597 398.848,37.062 398.953,37.167ZM398.827,43.139C400.128,44.233 399.729,44.864 396.288,47.219C393.938,48.838 393.54,48.985 392.763,48.586C391.966,48.165 391.882,47.997 392.155,47.282C392.533,46.273 394.715,44.296 396.792,43.118C397.925,42.466 398.051,42.466 398.827,43.139ZM398.848,33.55C399.393,34.097 399.372,34.938 398.785,35.632C398.009,36.557 394.987,39.165 394.505,39.312C393.351,39.67 392.281,38.66 392.784,37.693C393.309,36.684 394.127,35.8 395.743,34.497C397.547,33.024 398.155,32.856 398.848,33.55ZM395.596,32.751C396.267,32.373 396.435,32.457 395.994,32.94C395.785,33.172 395.134,33.718 394.547,34.139C393.98,34.56 393.12,35.211 392.679,35.59C392.197,35.99 391.63,36.284 391.316,36.284C390.791,36.263 390.791,36.242 391.609,35.548C392.407,34.833 394.715,33.214 395.596,32.751ZM324.301,206.552C324.301,206.552 324.632,211.487 325.716,214.592C326.799,217.696 324.505,220.392 324.789,221.653C325.019,221.714 326.454,223.514 328.296,218.878C328.281,218.655 329.804,215.463 329.804,215.463L334.503,218.46L344.289,226.074C344.289,226.074 345.323,226.099 344.66,225.019C343.997,223.94 341.758,222.916 341.758,222.916L341.919,221.299C341.919,221.299 345.641,223.373 346.902,223.746C348.162,224.12 348.243,222.931 346.983,222.338C345.724,221.745 337.159,215.297 337.159,215.297L338.334,213.926C338.334,213.926 343.859,219.003 349.346,219.885C349.741,219.94 352.073,219.187 348.139,217.685C344.206,216.183 340.137,213.251 339.112,211.845C338.918,211.858 348.025,214.04 348.025,214.04C348.025,214.04 351.529,212.858 347.184,212.124C342.84,211.39 333.455,206.207 331.284,204.913C329.112,203.619 328.996,204.112 328.996,204.112L324.301,206.552ZM460.448,41.511L462.593,39.576L467.218,39.188L469.471,40.141L471.698,43.374L469.568,50.149L465.723,45.465L460.448,41.511Z"></path>
                        <clipPath id="_clip2">
                            <path clip-rule="nonzero" d="M325.309,194.338C325.414,194.632 325.267,194.989 324.89,195.452C324.071,196.419 323.274,196.777 322.288,196.609C320.735,196.356 320.4,195.683 318.595,189.059C318.05,187.083 317.399,184.727 317.106,183.802C316.161,180.627 314.504,171.101 314.504,168.829C314.504,168.178 314.525,168.156 315.196,168.283C315.553,168.346 316.329,168.829 316.917,169.334C318.029,170.344 318.595,170.428 319.686,169.713C320.295,169.292 320.295,169.124 319.644,168.766C318.994,168.409 318.973,168.135 319.602,168.135C319.854,168.135 320.211,168.051 320.379,167.925C320.568,167.799 320.798,167.82 321.008,167.988C321.176,168.114 321.344,168.241 321.365,168.241C321.386,168.241 321.512,169.145 321.638,170.238C322.057,173.876 322.498,177.472 322.687,178.755C322.792,179.449 322.938,180.732 323.001,181.594C323.064,182.456 323.295,184.16 323.526,185.379C323.778,186.599 324.092,188.344 324.26,189.27C324.596,191.162 325.12,193.665 325.309,194.338ZM332.044,146.833L332.149,148.473L331.708,147.906C331.016,147.022 329.925,146.434 328.918,146.434C326.841,146.413 325.204,147.359 324.47,149.02L324.071,149.903L324.89,150.555C326.967,152.196 328.561,154.172 329.107,155.728C329.401,156.57 329.38,156.612 328.729,157.516C328.1,158.357 327.974,158.441 327.407,158.315C325.687,157.936 325.477,158.147 325.435,160.271C325.393,161.953 325.015,162.058 324.05,160.67C323.631,160.039 322.372,158.672 321.302,157.621C319.372,155.77 319.33,155.728 319.33,154.761L319.33,153.773L318.595,153.899C318.197,153.962 317.861,153.962 317.861,153.878C317.861,153.794 318.05,153.037 318.281,152.196C318.679,150.723 318.826,149.399 318.574,149.167C318.511,149.104 318.134,149.125 317.735,149.209L317.001,149.378L317.148,148.621C317.232,148.179 317.378,147.737 317.483,147.59C317.714,147.317 317.567,147.212 316.665,147.001C315.805,146.833 314.714,145.824 314.714,145.214C314.714,144.941 315.049,144.436 315.49,144.036C316.518,143.09 317.546,142.943 319.393,143.532C320.924,144.015 321.092,143.994 320.882,143.469C320.651,142.859 319.309,142.396 317.819,142.396C316.497,142.417 316.392,142.375 316.392,141.954C316.392,141.26 315.889,140.735 315.175,140.714C314.651,140.693 314.525,140.588 314.42,140.104C314.357,139.767 314.105,139.263 313.875,138.968C313.644,138.674 313.455,138.295 313.455,138.148C313.455,138.001 314.777,137.202 316.413,136.361C318.029,135.52 319.854,134.489 320.442,134.069L321.533,133.29L321.805,134.363C321.952,134.952 322.414,136.171 322.833,137.076C323.589,138.695 323.652,138.758 324.974,139.41C325.75,139.788 326.904,140.314 327.575,140.588C330.24,141.639 331.876,143.91 332.044,146.833ZM326.778,159.219C326.946,159.303 327.093,159.366 327.093,159.408C327.093,159.429 326.946,159.577 326.778,159.724C326.505,159.934 326.463,159.913 326.463,159.556C326.463,159.24 326.568,159.135 326.778,159.219ZM323.631,154.698C323.694,154.467 323.421,153.583 323.001,152.658C322.12,150.702 321.449,150.009 321.155,150.766C321.092,150.934 321.26,151.481 321.533,151.985C322.246,153.331 321.994,153.541 320.421,152.847C319.372,152.406 319.057,152.343 318.847,152.553C318.658,152.763 318.679,152.889 319.015,153.121C319.728,153.668 321.281,154.404 322.414,154.74C323.442,155.055 323.505,155.055 323.631,154.698ZM353.277,83.179C353.319,83.179 352.228,84.44 350.843,85.954C349.458,87.489 347.004,90.034 345.409,91.611C342.954,94.05 342.073,94.765 339.576,96.322C337.961,97.352 335.926,98.635 335.065,99.182C334.205,99.728 332.862,100.569 332.086,101.053C330.638,101.936 330.282,102.399 331.142,102.294C332.002,102.168 332.128,102.441 331.708,103.535C331.478,104.081 330.953,105.553 330.534,106.815C329.82,108.897 329.694,109.128 329.065,109.381C328.016,109.822 327.533,109.738 325.939,108.834C323.841,107.656 322.435,106.521 322.246,105.848C322.162,105.511 322.246,104.565 322.477,103.535C322.687,102.567 322.917,101.221 323.001,100.527C323.211,98.53 323.568,97.016 324.008,96.111C324.428,95.249 325.372,94.114 325.666,94.114C326.127,94.114 328.561,92.789 328.561,92.515C328.561,92.158 328.079,92.137 327.449,92.452C327.051,92.684 330.408,88.667 331.142,88.057C331.415,87.826 331.562,87.952 332.107,88.94C333.135,90.707 334.499,92.116 335.947,92.831C336.66,93.188 337.373,93.483 337.562,93.483C337.751,93.483 338.947,92.747 340.206,91.842C341.486,90.959 343.5,89.613 344.717,88.877C345.934,88.141 347.675,87.006 348.598,86.375C351.64,84.272 353.214,83.179 353.277,83.179ZM383.951,71.865C384.749,71.844 384.832,71.865 384.476,72.075C383.574,72.58 381.475,74.262 380.28,75.419C379.587,76.092 378.517,76.891 377.888,77.206L376.755,77.774L371.489,77.606C368.593,77.501 365.362,77.417 364.292,77.417C363.235,77.417 362.404,77.396 362.404,77.375C363.872,76.155 365.383,75.019 366.117,74.599C366.642,74.304 367.565,73.673 368.174,73.232C369.369,72.328 369.831,72.286 371.824,72.979C373.02,73.379 374.929,73.61 374.929,73.358C374.929,73.253 374.804,73.043 374.678,72.895C374.111,72.349 375.16,72.138 379.126,72.033C381.266,71.97 383.427,71.886 383.951,71.865ZM398.953,37.167C398.995,37.209 398.827,37.714 398.554,38.282C397.967,39.522 393.812,43.707 391.714,45.158C390.288,46.147 382.629,50.983 379.524,52.855C378.433,53.507 375.936,54.621 373.335,55.631C370.922,56.577 368.153,57.67 367.166,58.07C366.18,58.491 364.586,59.1 363.6,59.437C361.271,60.215 361.858,60.194 365.215,59.395C367.775,58.785 374.195,56.619 375.769,55.841C376.167,55.652 376.839,55.42 377.237,55.336C377.93,55.21 381.245,53.423 383.007,52.245C383.469,51.951 384.434,51.404 385.147,51.025C385.882,50.668 387.434,49.7 388.609,48.88L390.77,47.408L390.917,48.039C391.106,48.754 392.071,49.427 393.183,49.637C393.812,49.742 394.148,49.616 395.596,48.712C396.519,48.123 397.568,47.492 397.904,47.303L398.533,46.946L398.009,47.555C396.624,49.154 393.372,52.413 392.239,53.296C390.98,54.327 381.937,60.467 381.538,60.572C381.434,60.614 380.426,60.888 379.335,61.203C378.244,61.519 376.503,62.044 375.454,62.381C374.426,62.696 372.663,63.243 371.572,63.58C370.481,63.916 368.761,64.442 367.754,64.757C366.747,65.073 365.761,65.367 365.551,65.409C363.621,65.809 358.669,67.281 357.725,67.701L356.991,68.038L358.459,67.912C359.278,67.827 359.886,67.827 359.823,67.869C359.634,68.08 352.794,71.234 350.654,72.138L348.514,73.022L349.333,71.528C350.13,70.056 353.109,63.537 353.109,63.264C353.109,62.844 359.278,50.794 359.823,50.121C360.641,49.112 362.53,48.081 365.068,47.198C366.159,46.819 367.691,46.252 368.446,45.936C370.083,45.263 372.202,44.632 372.349,44.759C372.58,44.99 370.649,46.147 367.208,47.871C365.173,48.901 363.558,49.721 363.642,49.742C363.726,49.742 364.942,49.322 366.369,48.817C368.782,47.955 371.656,46.672 373.88,45.453C374.405,45.158 376.524,44.086 378.601,43.055C382.525,41.121 386.889,38.723 388.819,37.462C390.078,36.62 390.036,36.641 390.455,36.936C390.728,37.104 390.686,37.188 390.267,37.504C389.994,37.693 389.217,38.282 388.567,38.807C387.896,39.333 386.994,40.027 386.553,40.343C386.091,40.679 384.937,41.541 383.951,42.298C379.168,45.936 378.265,46.588 376.608,47.534C373.629,49.238 368.992,51.383 363.809,53.423C360.662,54.684 361.124,54.684 364.775,53.444C372.412,50.836 373.838,50.247 376.902,48.544C381.329,46.104 382.483,45.305 388.924,40.427C391.253,38.681 391.924,38.261 391.924,38.576C391.924,39.018 393.036,40.258 393.456,40.3C394.442,40.406 395.973,39.817 396.54,39.123C396.98,38.597 398.848,37.062 398.953,37.167ZM398.827,43.139C400.128,44.233 399.729,44.864 396.288,47.219C393.938,48.838 393.54,48.985 392.763,48.586C391.966,48.165 391.882,47.997 392.155,47.282C392.533,46.273 394.715,44.296 396.792,43.118C397.925,42.466 398.051,42.466 398.827,43.139ZM398.848,33.55C399.393,34.097 399.372,34.938 398.785,35.632C398.009,36.557 394.987,39.165 394.505,39.312C393.351,39.67 392.281,38.66 392.784,37.693C393.309,36.684 394.127,35.8 395.743,34.497C397.547,33.024 398.155,32.856 398.848,33.55ZM395.596,32.751C396.267,32.373 396.435,32.457 395.994,32.94C395.785,33.172 395.134,33.718 394.547,34.139C393.98,34.56 393.12,35.211 392.679,35.59C392.197,35.99 391.63,36.284 391.316,36.284C390.791,36.263 390.791,36.242 391.609,35.548C392.407,34.833 394.715,33.214 395.596,32.751ZM324.301,206.552C324.301,206.552 324.632,211.487 325.716,214.592C326.799,217.696 324.505,220.392 324.789,221.653C325.019,221.714 326.454,223.514 328.296,218.878C328.281,218.655 329.804,215.463 329.804,215.463L334.503,218.46L344.289,226.074C344.289,226.074 345.323,226.099 344.66,225.019C343.997,223.94 341.758,222.916 341.758,222.916L341.919,221.299C341.919,221.299 345.641,223.373 346.902,223.746C348.162,224.12 348.243,222.931 346.983,222.338C345.724,221.745 337.159,215.297 337.159,215.297L338.334,213.926C338.334,213.926 343.859,219.003 349.346,219.885C349.741,219.94 352.073,219.187 348.139,217.685C344.206,216.183 340.137,213.251 339.112,211.845C338.918,211.858 348.025,214.04 348.025,214.04C348.025,214.04 351.529,212.858 347.184,212.124C342.84,211.39 333.455,206.207 331.284,204.913C329.112,203.619 328.996,204.112 328.996,204.112L324.301,206.552ZM460.448,41.511L462.593,39.576L467.218,39.188L469.471,40.141L471.698,43.374L469.568,50.149L465.723,45.465L460.448,41.511Z"></path>
                        </clipPath>
                        <g clip-path="url(#_clip2)">
                            <g transform="matrix(1,0,0,1,0.756254,-2.25148)">
                                <ellipse style="fill:rgb(253,142,170);" ry="2.829" rx="2.794" cy="150.506" cx="321.018"></ellipse>
                            </g>
                            <g transform="matrix(1,0,0,1,9.24381,8.72379)">
                                <ellipse style="fill:rgb(253,142,170);" ry="2.829" rx="2.794" cy="150.506" cx="321.018"></ellipse>
                            </g>
                        </g>
                    </g>
                    <g transform="matrix(0.880385,0,0,0.984813,49.9516,-10.1786)">
                        <path style="fill:rgb(254,193,191);" d="M317.387,185.379C317.387,185.379 317.771,170.889 321.533,166.548C321.62,166.975 313.315,165.717 313.419,167.669C313.524,169.62 317.387,185.379 317.387,185.379Z"></path>
                    </g>
                    <g transform="matrix(0.880385,0,0,0.984813,49.9516,-10.1786)">
                        <path style="fill:rgb(254,193,191);" d="M320.233,142.964C320.233,142.964 318.399,140.822 317.387,138.137C317.22,137.695 322.101,133.186 321.918,132.803C321.938,132.801 312.728,138.137 312.728,138.137L314.42,140.972L315.675,141.509L316.23,142.964L320.233,142.964Z"></path>
                    </g>
                    <g transform="matrix(0.880385,0,0,0.984813,49.9516,-10.1786)">
                        <path style="fill:rgb(254,193,191);" d="M325.939,161.533L322.916,157.802L318.714,153.847C318.714,153.847 318.976,152.226 319.206,151.398C319.535,150.214 319.551,148.648 319.551,148.648C319.551,148.648 319.366,147.367 316.807,148.648C316.692,148.452 315.761,150.808 315.761,150.808L319.551,158.657L325.267,162.802L325.939,161.533Z"></path>
                    </g>
                    <g transform="matrix(0.880385,0,0,0.984813,49.9516,-10.1786)">
                        <path style="fill:rgb(254,193,191);" d="M317.899,146.376C317.899,146.376 316.094,146.381 316.08,145.208C316.079,145.042 316.836,144.264 317.514,144.201C318.577,144.104 319.22,144.385 319.632,144.549"></path>
                    </g>
                    <g transform="matrix(0.0184714,-5.7769e-21,5.16432e-21,-0.0207096,53.0901,352.973)">
                        <path style="fill:rgb(239,153,151);fill-rule:nonzero;" d="M15629,10441C15653,10390 15653,10390 15636,10328C15616,10257 15571,10150 15560,10150C15556,10150 15548,10162 15541,10176C15511,10243 15426,10333 15336,10394C15319,10405 15319,10409 15333,10436C15381,10528 15496,10567 15570,10516C15592,10502 15615,10472 15629,10441Z"></path>
                    </g>
                    <g transform="matrix(0.880385,0,0,0.984813,49.9516,-10.1786)">
                        <path style="fill:white;" d="M330.693,154.932C330.693,154.932 329.397,150.382 325.223,148.996C325.144,149.056 324.599,149.797 324.599,149.797C324.599,149.797 329.502,154.545 329.874,155.787C329.881,155.866 330.693,154.932 330.693,154.932Z"></path>
                    </g>
                </g>
                <g transform="matrix(0.0184714,-5.7769e-21,5.16432e-21,-0.0207096,53.0901,352.973)">
                    <path style="fill:rgb(225,88,73);fill-rule:nonzero;" d="M15223,9884C15249,9845 15274,9781 15266,9773C15261,9767 15111,9765 15106,9771C15104,9773 15083,9800 15060,9830C15019,9884 15019,9886 15025,9945C15028,9978 15034,10015 15037,10027L15042,10049L15079,10031C15099,10020 15133,9992 15156,9968C15178,9944 15208,9907 15223,9884Z"></path>
                </g>
                <g>
                    <g transform="matrix(0.880385,0,0,0.984813,49.9516,-10.1786)">
                        <path style="fill:rgb(246,141,31);fill-rule:nonzero;" d="M334.394,112.198C334.751,112.198 334.688,112.283 332.443,115.143C331.373,116.467 329.988,118.297 329.359,119.18C328.708,120.084 327.68,121.199 327.072,121.661C325.834,122.587 325.666,122.902 325.645,124.585C325.624,125.615 325.54,125.783 324.827,126.477C324.386,126.898 323.652,127.36 323.19,127.487C319.225,128.622 319.12,128.664 319.12,129.085C319.12,129.442 319.225,129.484 319.98,129.379C320.463,129.316 320.777,129.337 320.672,129.421C320.337,129.695 316.497,132.113 315.805,132.47C314.399,133.185 311.357,133.942 311.357,133.564C311.357,133.522 311.21,132.134 311.042,130.515C310.874,128.874 310.727,126.75 310.706,125.804C310.664,122.671 312.427,109.591 313.35,106.184C314.063,103.577 316.203,98.761 318.029,95.691C318.448,94.997 319.393,93.567 320.169,92.536C322.708,89.088 324.554,86.165 325.855,83.599C327.009,81.307 327.26,80.97 327.785,81.055C327.869,81.055 327.932,80.949 327.932,80.781C327.932,80.571 328.33,80.445 329.359,80.34C330.135,80.255 330.869,80.171 330.974,80.129C331.289,80.024 332.38,80.066 333.051,80.213C333.66,80.34 333.66,80.34 332.59,80.844C331.562,81.328 330.575,82.211 330.534,82.653C330.534,82.758 330.471,83.052 330.387,83.305C330.303,83.536 330.324,84.188 330.429,84.777C330.596,85.639 330.575,85.912 330.24,86.48C329.799,87.237 327.135,90.644 325.414,92.642C323.211,95.207 322.959,95.754 321.742,100.527C321.47,101.558 321.197,102.672 321.134,102.988C321.05,103.366 320.819,103.619 320.484,103.703C320.064,103.808 319.896,104.06 319.623,105.028C319.456,105.679 319.225,106.394 319.12,106.647C319.036,106.878 318.742,108.119 318.511,109.381C318.26,110.642 317.525,113.839 316.875,116.467C315.973,120.126 315.763,121.325 315.931,121.493C316.308,121.872 316.707,121.346 317.211,119.769C317.651,118.402 317.672,118.402 317.567,119.39C317.441,120.442 317.714,120.862 318.176,120.379C318.323,120.21 318.637,118.907 318.889,117.456C319.12,116.005 319.644,113.019 320.022,110.79L320.714,106.773L322.267,108.014C323.862,109.275 326.316,110.663 327.827,111.147L328.645,111.42L327.156,112.808C324.071,115.668 322.183,118.213 323.505,117.708C323.799,117.603 328.289,113.649 329.904,112.072C330.156,111.82 332.359,111.925 332.317,112.177C332.317,112.241 331.771,112.766 331.121,113.334C329.422,114.785 323.945,120.21 323.715,120.652C323.547,120.968 323.589,121.031 323.945,121.031C324.197,121.031 325.267,120.21 326.505,119.075C332.212,113.881 334.142,112.198 334.394,112.198ZM348.934,93.567C349.06,94.008 349.123,94.387 349.081,94.429C349.039,94.45 346.857,95.691 344.192,97.163C338.192,100.506 337.038,101.305 333.765,104.418C332.296,105.785 332.254,105.743 333.072,104.018C333.324,103.492 333.66,102.672 333.828,102.231C333.995,101.789 334.352,101.263 334.646,101.074C334.94,100.906 335.716,100.338 336.366,99.854C337.017,99.35 338.359,98.488 339.346,97.92C342.325,96.174 343.689,95.165 345.871,93.02C347.025,91.906 348.032,90.959 348.116,90.959C348.2,90.959 348.367,91.359 348.493,91.842C348.619,92.347 348.829,93.104 348.934,93.567Z"></path>
                    </g>
                    <g transform="matrix(0.809663,-0.0455189,0.0406921,0.905702,67.7505,15.3182)">
                        <path style="fill:rgb(244,196,108);" d="M309.524,133.601L308.961,131.478C308.961,131.478 316.556,129.438 317.894,127.517C319.232,125.596 320.676,125.125 322.739,123.98C324.803,122.836 325.267,121.907 325.762,120.69C326.258,119.473 336.018,110.448 336.018,110.448L336.748,111.506L327.511,122.042L326.58,125.131L324.367,127.942L321.842,127.73L319.204,129.966L314.442,132.431L309.524,133.601Z"></path>
                    </g>
                    <g transform="matrix(0.0184714,-5.7769e-21,5.16432e-21,-0.0207096,53.0901,352.973)">
                        <path style="fill:rgb(246,141,31);fill-rule:nonzero;" d="M15217,11413C15229,11431 15233,11394 15225,11344C15219,11303 15213,11295 15147,11246C15084,11199 14733,11010 14709,11010C14704,11010 14700,11036 14700,11069C14700,11127 14700,11128 14731,11134C14790,11146 14951,11229 15081,11315C15152,11363 15213,11407 15217,11413Z"></path>
                    </g>
                    <g transform="matrix(0.880385,0,0,0.984813,49.9516,-10.1786)">
                        <path style="fill:rgb(233,105,20);" d="M318.223,134.615L318.803,130.809L317.429,131.371L317.429,135.222L318.223,134.615Z"></path>
                    </g>
                    <g transform="matrix(0.880385,0,0,0.984813,49.9516,-10.1786)">
                        <path style="fill:rgb(233,105,20);" d="M316.06,136.124L316.388,132.34C316.388,132.34 315.168,132.903 314.907,133.084C314.645,133.264 313.895,137.075 313.895,137.075"></path>
                    </g>
                    <g transform="matrix(0.880385,0,0,0.984813,49.9516,-10.1786)">
                        <path style="fill:rgb(233,105,20);" d="M316.06,136.124L313.895,137.075L312.932,137.451L313.895,133.79L311.198,134.533L311.666,137.451L312.932,137.451"></path>
                    </g>
                </g>
                <g transform="matrix(0.880385,0,0,0.984813,49.9516,-10.1786)">
                    <path style="fill:rgb(253,198,103);" d="M324.659,165.721L329.425,164.629L328.532,163.25L323.163,163.753L319.93,163.793L318.203,161.636L319.007,156.753L319.167,154.284L317.544,154.882L317.91,150.149L316.469,150.252L316.659,147.678L314.113,145.994L315.257,143.392L315.911,142.123L314.431,141.078L312.418,139.538L309.182,140.536L308.022,139.337L305.073,141.076L303.44,142.28L302.343,144.393L300.844,146.137L300.574,149.038L300.324,151.653L299.512,151.595L301.313,157.01L301.402,159.222L300.251,159.431L300.421,161.548L303.497,163.156L305.008,164.705L304.145,165.818L306.144,166.933L308.877,166.312L309.141,168.102L310.856,168.462L311.806,166.802L312.391,169.011L313.645,169.131L313.983,167.43L315.631,167.753L318.046,169.757L319.217,169.297L318.054,168.062L320.385,167.331L323.539,168.786L324.982,168.482L322.897,167.071L324.659,165.721Z"></path>
                    <clipPath id="_clip3">
                        <path d="M324.659,165.721L329.425,164.629L328.532,163.25L323.163,163.753L319.93,163.793L318.203,161.636L319.007,156.753L319.167,154.284L317.544,154.882L317.91,150.149L316.469,150.252L316.659,147.678L314.113,145.994L315.257,143.392L315.911,142.123L314.431,141.078L312.418,139.538L309.182,140.536L308.022,139.337L305.073,141.076L303.44,142.28L302.343,144.393L300.844,146.137L300.574,149.038L300.324,151.653L299.512,151.595L301.313,157.01L301.402,159.222L300.251,159.431L300.421,161.548L303.497,163.156L305.008,164.705L304.145,165.818L306.144,166.933L308.877,166.312L309.141,168.102L310.856,168.462L311.806,166.802L312.391,169.011L313.645,169.131L313.983,167.43L315.631,167.753L318.046,169.757L319.217,169.297L318.054,168.062L320.385,167.331L323.539,168.786L324.982,168.482L322.897,167.071L324.659,165.721Z"></path>
                    </clipPath>
                    <g clip-path="url(#_clip3)">
                        <path style="fill:rgb(246,141,31);" d="M314.849,158.205L312.418,157.01L313.638,153.755L314.849,147.032L316.95,147.445L314.849,156.097L314.849,158.205ZM311.104,158.205L310.658,151.718L309.068,147.032L307.759,147.445L308.412,154.473L309.723,158.205L311.104,158.205ZM309.068,145.87L308.412,139.745L306.815,139.745L307.246,144.623L307.759,146.689L309.068,145.87ZM313.127,147.445L313.638,144.623L313.638,140.579L312.418,139.745L311.104,146.689C311.104,146.689 312.368,147.991 312.418,148.183C312.468,148.375 313.127,147.445 313.127,147.445ZM314.849,144.009C314.849,144.009 316.4,142.234 316.025,142.058C315.649,141.883 314.448,141.036 314.448,141.036L313.638,144.623L314.849,144.009ZM305.333,146.689L304.459,142.058L303.158,143.101L303.158,147.032L304.459,147.445L305.333,146.689ZM303.158,147.032L302.514,144.623L301.104,145.87L301.104,147.858L302.514,147.858L303.158,147.032ZM303.158,153.755L302.514,149.705L302.514,147.858L301.104,147.858L301.104,152.829L303.158,153.755ZM305.333,159.951L303.158,158.205L301.104,157.01L301.104,159.331L304.459,160.719M320.007,167.17L318.293,165.873L316.95,164.277L314.849,164.277L316.025,166.313L317.914,167.925L320.007,167.17ZM315.54,167.17L314.116,165.873M315.54,167.17L314.116,167.925L313.638,166.313L314.116,165.873L313.127,165.053L312.418,163.903L311.474,163.398L311.104,165.053L313.127,165.053L308.412,164.715L307.759,163.903L304.459,162.951L304.459,164.715L308.412,164.715"></path>
                    </g>
                </g>
            </g>
            <g transform="matrix(0.880385,0,0,0.984813,49.9516,-10.1786)">
                <path style="fill:rgb(34,31,145);fill-rule:nonzero;" d="M348.633,214.058C348.347,214.133 348.048,214.154 347.78,214.105C347.423,214.021 346.374,213.831 345.451,213.663C344.528,213.495 342.786,213.032 341.591,212.612C340.374,212.212 339.346,211.876 339.304,211.876C339.157,211.876 340.437,212.885 341.695,213.726C342.409,214.21 343.122,214.715 343.29,214.862C343.437,215.009 344.989,215.829 346.71,216.691C350.193,218.395 350.591,218.668 350.591,219.362C350.591,219.896 350.277,220.153 349.63,220.13L349.616,220.129C348.988,220.104 348.055,219.82 346.794,219.278C342.556,217.448 337.793,214.588 337.793,213.873C337.793,213.705 337.877,213.558 338.003,213.558C338.171,213.558 341.486,215.619 343.08,216.733C343.395,216.965 343.71,217.133 343.794,217.133C343.877,217.133 344.423,217.364 345.01,217.638C347.895,218.99 349.167,219.513 349.651,219.513C349.769,219.513 349.84,219.482 349.878,219.425C350.046,219.131 350.067,219.152 347.843,218.058C346.752,217.532 345.325,216.754 344.633,216.355C343.961,215.934 343.038,215.388 342.577,215.156C342.136,214.904 341.066,214.189 340.206,213.558C338.905,212.612 338.632,212.296 338.632,211.813C338.632,211.035 339.01,210.929 340.227,211.413C342.115,212.17 346.269,213.306 347.612,213.453L348.517,213.522C348.876,213.519 348.913,213.419 348.913,213.158C348.913,212.885 348.745,212.696 348.451,212.633C344.801,211.876 342.891,211.245 339.639,209.752C338.171,209.058 336.933,208.511 336.849,208.511C336.786,208.511 335.989,208.006 335.086,207.375C333.513,206.303 331.687,205.546 329.988,205.273C329.568,205.188 329.191,205.02 329.128,204.873C329.044,204.6 328.666,204.747 327.302,205.63C326.904,205.882 326.148,206.135 325.624,206.198C324.953,206.282 324.659,206.408 324.617,206.66C324.575,206.934 324.68,207.039 324.974,207.039C325.498,207.039 325.519,207.165 325.078,208.217C324.617,209.31 324.785,210.719 325.603,212.759C325.96,213.642 326.295,214.967 326.379,215.703C326.484,216.881 326.421,217.301 325.855,218.962C325.498,220.014 325.204,221.065 325.204,221.318C325.204,221.991 325.792,221.864 326.673,220.96C327.323,220.308 327.491,219.951 327.701,218.71C328.121,216.334 328.582,215.388 329.505,215.03C330.429,214.673 331.918,211.371 331.918,209.731C331.918,208.995 332.275,208.953 332.464,209.668C332.757,210.866 332.044,213.137 330.827,214.862L330.429,215.43L331.184,215.577C332.107,215.745 332.569,215.388 332.967,214.189C333.114,213.726 333.534,212.99 333.911,212.549C334.898,211.371 335.506,210.446 335.716,209.815C335.884,209.331 335.884,209.373 335.8,210.067C335.758,210.509 335.443,211.266 335.128,211.728C334.1,213.2 333.597,214.084 333.597,214.462C333.597,214.673 333.408,215.198 333.177,215.661L332.757,216.481L333.639,217.217C334.625,218.079 334.625,218.079 335.338,217.701C335.758,217.469 335.821,217.343 335.653,217.175C335.464,216.986 335.464,216.86 335.653,216.67C335.863,216.46 336.031,216.481 336.492,216.754C336.807,216.923 337.457,217.133 337.961,217.217L338.863,217.343L337.667,216.229C336.87,215.472 336.534,215.051 336.702,214.946C336.87,214.841 337.457,215.261 338.276,216.039C339.765,217.448 343.5,220.077 346.29,221.654C348.011,222.621 348.179,222.769 348.179,223.336C348.179,224.409 347.255,224.304 344.549,222.937C342.325,221.822 342.22,221.78 342.157,222.243C342.115,222.6 342.388,222.916 343.5,223.715C345.052,224.83 345.493,225.608 344.822,226.091C344.36,226.428 343.416,226.091 342.199,225.124C341.381,224.472 341.381,224.472 341.15,224.935C340.793,225.587 338.716,226.47 337.478,226.47C335.002,226.512 333.135,224.64 333.009,221.991C332.967,220.792 333.03,220.455 333.534,219.551L334.121,218.5L333.177,217.743C332.023,216.817 330.072,215.871 329.694,216.018C329.526,216.081 329.212,216.796 328.96,217.638C328.729,218.458 328.477,219.32 328.414,219.551C328.142,220.455 327.26,221.549 326.4,222.054C325.225,222.748 324.638,222.748 324.323,222.075C324.113,221.633 324.197,221.276 324.743,219.783C325.519,217.785 325.645,215.577 325.078,214.084C324.323,212.044 323.987,210.151 323.736,206.24C323.736,206.219 323.61,206.198 323.442,206.198C323.274,206.198 322.875,205.988 322.582,205.714C322.12,205.336 321.973,204.936 321.763,203.464C321.617,202.476 321.281,201.256 321.05,200.73C319.623,197.681 319.12,196.23 319.141,195.305C319.162,193.98 319.036,193.412 316.959,186.22C315.784,182.078 314.84,178.292 314.168,174.844C313.182,169.776 313.161,169.671 312.574,169.418C312.112,169.208 311.986,169.019 311.986,168.493L311.965,167.82L311.546,168.388C311.042,169.082 310.539,169.124 309.322,168.556C308.378,168.135 308.273,167.946 308.65,167.252C308.86,166.874 308.839,166.832 308.503,166.958C308.273,167.042 307.601,167.168 306.993,167.231C306.049,167.336 305.671,167.273 304.622,166.769C303.783,166.348 303.384,166.033 303.384,165.78C303.384,165.57 303.51,165.402 303.657,165.402C303.783,165.402 304.034,165.318 304.202,165.212C304.454,165.044 304.37,164.855 303.762,164.182C303.363,163.719 302.943,163.215 302.839,163.046C302.734,162.857 302.167,162.479 301.559,162.163C300.321,161.553 300.069,161.196 299.88,159.808C299.754,158.82 299.754,158.82 300.3,158.925C300.636,158.988 300.866,158.946 300.866,158.799C300.866,158.126 300.153,155.371 299.503,153.52C299.104,152.364 298.768,151.27 298.768,151.081C298.768,150.723 299.314,150.387 299.607,150.576C299.817,150.702 300.216,148.915 300.195,147.948C300.153,146.265 300.237,146.055 301.16,145.13C301.852,144.415 302.083,144.015 302.188,143.3C302.314,142.333 302.755,141.849 303.51,141.849C303.825,141.849 304.076,141.66 304.265,141.26C304.412,140.945 304.853,140.545 305.23,140.356C305.608,140.167 306.133,139.767 306.405,139.473C306.804,139.052 307.098,138.947 307.874,138.947C308.797,138.947 308.86,138.968 308.986,139.578C309.049,139.915 309.175,140.125 309.238,140.02C309.301,139.915 309.72,139.62 310.161,139.347C310.916,138.884 311.189,138.863 312.049,139.221C312.343,139.347 312.406,139.263 312.406,138.8C312.406,138.295 312.343,138.253 311.734,138.316C311.168,138.38 311.063,138.295 310.895,137.749C310.79,137.391 310.769,136.802 310.832,136.424C310.916,135.961 310.853,135.646 310.643,135.435C310.287,135.057 310.014,133.795 309.573,130.41C309.406,129.043 309.217,127.844 309.154,127.76C308.881,127.297 309.972,115.858 310.832,110.222C311.881,103.556 312.049,102.925 313.623,100.443C314.378,99.224 315.637,97.037 316.392,95.586C317.232,93.966 318.448,92.074 319.56,90.644C321.973,87.574 324.239,84.104 325.204,82.001C326.065,80.129 326.757,79.456 327.974,79.267C328.414,79.183 328.771,79.057 328.771,78.952C328.771,78.847 329.275,78.762 329.883,78.762C331.268,78.762 331.331,78.699 332.716,75.903C333.513,74.325 334.121,73.421 335.107,72.433C337.268,70.225 337.667,69.93 338.968,69.594C339.618,69.405 340.94,68.9 341.863,68.479C342.807,68.038 344.045,67.575 344.612,67.428C345.934,67.112 351.242,64.652 351.368,64.316C351.431,64.168 351.263,63.411 350.99,62.612C350.466,61.14 348.745,58.364 346.248,54.979C345.451,53.885 344.15,52.014 343.353,50.794C342.43,49.385 341.15,47.829 339.828,46.504C337.919,44.569 337.751,44.317 337.583,43.35C337.415,42.235 337.919,39.817 338.548,38.871C338.842,38.408 338.926,37.167 338.779,35.548C338.716,34.812 338.611,34.707 338.15,34.644C337.835,34.602 337.583,34.433 337.583,34.265L337.583,33.866C337.583,33.803 337.31,33.256 336.975,32.646C336.093,31.09 335.632,29.344 335.863,28.461C336.01,27.893 336.261,27.662 337.289,27.136C338.485,26.527 338.611,26.506 341.779,26.484C345.136,26.463 345.451,26.421 348.766,25.328C351.095,24.571 354.074,24.213 356.571,24.403C358.564,24.55 359.361,24.844 360.159,25.706C360.809,26.421 360.788,26.884 360.096,27.662C359.613,28.188 359.278,28.356 358.228,28.482C356.529,28.735 352.857,29.891 351.431,30.627C349.249,31.763 348.283,33.024 348.745,34.118C348.892,34.433 349.018,34.749 349.039,34.791C349.144,34.938 351.766,35.422 352.543,35.443C353.487,35.443 354.955,36.368 355.081,37.02C355.648,39.859 356.613,43.497 357.2,45.011C357.599,46.041 358.187,47.598 358.501,48.439L359.068,49.974L359.718,49.238C360.054,48.838 360.956,48.165 361.711,47.766C363.117,47.009 367.187,45.411 370.314,44.38C371.992,43.833 375.034,42.74 379.818,40.952C381.727,40.237 381.616,40.623 382.31,39.898C382.959,39.22 392.886,25.388 405.366,18.921C409.93,16.556 414.654,13.959 419.05,12.863C427.055,10.866 433.633,11.576 433.765,11.664C434.877,12.379 437.327,14.477 437.537,15.57C437.768,16.79 438.292,23.267 438.292,25.097C438.292,26.821 438.208,27.22 436.74,31.552C435.9,34.097 434.935,36.641 434.62,37.23C430.193,45.179 427.361,49.028 422.074,54.159C417.29,58.785 413.954,60.951 405.037,65.073C401.366,66.797 396.456,68.753 393.498,69.72C392.7,69.972 391.756,70.309 391.4,70.456C391.064,70.603 390.35,70.835 389.826,70.982C388.63,71.297 386.469,72.264 386.469,72.475C386.469,72.769 387.224,72.874 390.371,73.085C392.092,73.19 395.952,73.463 398.932,73.694C401.932,73.926 404.45,74.073 404.513,74.031C404.597,73.989 405.814,74.031 407.24,74.157C410.157,74.388 410.492,74.325 412.276,73.148C414.248,71.844 414.856,71.381 417.773,68.963C419.346,67.68 422.347,65.451 424.487,63.979C429.585,60.488 431.977,58.007 437.6,50.521C441.104,45.852 442.216,44.548 443.412,43.77C446.076,41.983 450.65,40.616 453.587,40.7C454.343,40.721 455.161,40.742 455.392,40.721C455.623,40.721 456.063,40.805 456.378,40.931C456.839,41.121 457.133,41.1 457.805,40.826C458.266,40.637 458.917,40.49 459.231,40.49C459.588,40.49 460.029,40.279 460.322,39.964L460.805,39.438L460.343,38.934C459.987,38.555 459.882,38.261 459.987,37.903C460.217,36.957 461.875,34.707 463.763,32.814C464.791,31.763 466.008,30.354 466.47,29.66C467.498,28.062 469.638,25.854 471.568,24.382C474.778,21.942 475.177,22.047 478.576,25.917C481.198,28.903 482.226,30.711 483.716,35.001C485.185,39.228 485.521,39.88 487.577,42.298C489.507,44.569 493.263,49.974 494.186,51.803C495.633,54.684 497.354,60.068 497.857,63.306C498.445,67.07 498.739,73.505 498.319,73.505C498.214,73.505 497.92,73.821 497.69,74.22C497.228,74.956 495.361,76.092 494.207,76.323C493.43,76.491 491.983,76.008 491.039,75.293C490.22,74.662 489.276,72.832 489.276,71.865C489.276,70.856 488.5,67.933 487.933,66.797C487.661,66.271 487.136,65.073 486.779,64.147C486.276,62.886 485.919,62.318 485.353,61.876C484.933,61.561 483.611,60.404 482.394,59.29C480.464,57.523 480.149,57.292 479.646,57.418C479.184,57.523 478.89,57.418 478.366,56.976C477.779,56.472 477.611,56.43 477.086,56.619C476.583,56.808 476.394,56.787 475.974,56.451C475.555,56.114 475.366,56.093 474.82,56.282C474.254,56.472 474.086,56.451 473.75,56.156C473.414,55.862 473.184,55.82 472.554,55.946C471.274,56.24 469.575,56.135 469.155,55.757C468.841,55.462 468.736,55.462 468.526,55.694C468.358,55.904 468.358,56.304 468.547,57.229C468.673,57.902 468.799,59.942 468.799,61.729C468.82,64.526 468.757,65.22 468.337,66.692C468.064,67.617 467.645,68.626 467.393,68.942C467.078,69.341 466.071,69.867 464.204,70.645C460.679,72.075 460.28,72.286 458.644,73.589C452.035,78.889 435.481,91.317 432.103,93.504C430.382,94.639 428.578,95.838 428.116,96.153C424.298,98.824 419.241,101.2 415.842,101.894C413.073,102.483 409.296,102.399 407.45,101.726C406.422,101.348 395.701,99.413 392.763,99.055C392.134,98.992 388.504,98.425 384.686,97.794C380.888,97.163 375.916,96.364 373.671,96.027C371.426,95.67 367.502,95.06 364.942,94.639C355.081,93.083 353.529,93.146 349.962,95.207C348.745,95.901 346.101,97.436 344.087,98.593C338.234,101.957 336.744,103.072 335.275,105.259C333.849,107.362 333.849,107.215 335.338,107.993C338.443,109.633 338.422,109.675 334.289,114.89C329.925,120.358 328.708,122.166 328.016,124.227C327.302,126.393 326.065,127.991 324.89,128.286C324.134,128.475 324.05,128.559 324.113,129.106C324.239,130.22 323.945,131.103 323.232,131.776L322.54,132.407L323.211,134.447C324.281,137.707 324.407,137.875 326.002,138.548C331.058,140.693 332.275,141.807 333.072,145.109C333.345,146.16 333.408,147.022 333.324,148.158C333.177,149.84 332.17,153.541 331.457,154.971C330.575,156.738 328.75,159.345 327.093,161.175C326.148,162.226 325.519,163.089 325.687,163.089C325.855,163.089 326.442,162.941 327.009,162.773C327.575,162.605 328.184,162.458 328.372,162.458C328.771,162.458 331.289,164.077 331.289,164.35C331.289,164.687 330.638,164.918 328.31,165.381C327.072,165.633 325.54,166.096 324.911,166.432L323.736,167.021L325.204,167.736C326.023,168.114 326.673,168.493 326.673,168.556C326.673,168.745 324.449,169.397 323.82,169.397C323.463,169.397 323.064,169.271 322.917,169.124C322.708,168.914 322.666,169.061 322.771,169.818C322.833,170.344 322.98,172.173 323.106,173.918C323.232,175.643 323.421,177.535 323.526,178.124C323.631,178.692 323.82,180.458 323.966,182.015C324.176,184.769 324.68,187.798 325.351,190.678C325.582,191.688 325.834,192.193 326.169,192.424C326.757,192.802 327.281,193.833 327.428,194.926C327.827,197.786 328.226,199.258 329.107,200.899C329.841,202.308 329.988,202.749 329.799,203.065C329.505,203.632 330.366,204.368 331.96,204.915C332.653,205.146 334.142,205.882 335.254,206.534C336.366,207.186 337.94,208.133 338.779,208.616C340.332,209.541 345.514,211.434 347.759,211.897C349.395,212.233 349.962,212.57 349.815,213.137C349.706,213.552 349.202,213.905 348.646,214.054L348.633,214.058ZM341.381,222.558C341.632,221.675 341.612,221.444 341.234,220.582C341.024,220.035 340.5,219.32 340.059,218.962C339.639,218.626 338.8,218.226 338.171,218.079C337.143,217.848 336.996,217.869 336.135,218.332C334.31,219.299 333.765,220.182 333.828,222.075C333.911,224.178 335.044,225.439 337.101,225.692C339.115,225.923 340.835,224.661 341.381,222.558ZM343.29,225.124C344.15,225.587 344.507,225.65 344.507,225.334C344.507,225.229 343.94,224.745 343.248,224.283C342.199,223.568 341.968,223.484 341.863,223.757C341.716,224.136 342.094,224.493 343.29,225.124ZM347.486,223.273C347.654,223.105 347.549,222.937 347.046,222.664C346.668,222.453 345.535,221.801 344.549,221.213C343.542,220.645 342.472,219.993 342.157,219.783L341.591,219.404L342.01,220.287C342.493,221.297 343.521,222.012 345.745,222.916C346.857,223.357 347.297,223.463 347.486,223.273ZM329.191,202.581C329.191,202.497 328.918,201.992 328.561,201.445L327.953,200.478L327.806,201.067C327.68,201.593 327.638,201.614 327.512,201.235C327.407,201.004 327.239,199.742 327.093,198.417C326.946,197.092 326.715,195.789 326.589,195.515C326.358,195.053 326.316,195.074 325.204,196.209C323.945,197.492 323.19,197.765 321.847,197.408C321.386,197.303 320.966,197.282 320.903,197.387C320.84,197.471 321.218,198.775 321.763,200.247C322.309,201.719 322.792,203.338 322.854,203.822C322.959,204.81 323.064,204.936 324.218,205.336C325.078,205.63 325.393,205.567 327.051,204.789C328.016,204.326 329.191,203.128 329.191,202.581ZM324.89,195.452C325.267,194.989 325.414,194.632 325.309,194.338C325.12,193.665 324.596,191.162 324.26,189.27C324.092,188.344 323.778,186.599 323.526,185.379C323.295,184.16 323.064,182.456 323.001,181.594C322.938,180.732 322.792,179.449 322.687,178.755C322.498,177.472 322.057,173.876 321.638,170.238C321.512,169.145 321.386,168.241 321.365,168.241C321.344,168.241 321.176,168.114 321.008,167.988C320.798,167.82 320.568,167.799 320.379,167.925C320.211,168.051 319.854,168.135 319.602,168.135C318.973,168.135 318.994,168.409 319.644,168.766C320.295,169.124 320.295,169.292 319.686,169.713C318.595,170.428 318.029,170.344 316.917,169.334C316.329,168.829 315.553,168.346 315.196,168.283C314.525,168.156 314.504,168.178 314.504,168.829C314.504,171.101 316.161,180.627 317.106,183.802C317.399,184.727 318.05,187.083 318.595,189.059C320.4,195.683 320.735,196.356 322.288,196.609C323.274,196.777 324.071,196.419 324.89,195.452ZM317.987,169.124C318.071,169.04 317.714,168.535 317.211,167.967C316.707,167.42 315.721,166.327 315.008,165.549C313.707,164.119 313.455,163.93 313.455,164.392C313.476,164.771 317.819,169.313 317.987,169.124ZM313.455,167.505C313.455,166.579 313.371,166.243 313.161,166.243C312.826,166.243 312.616,167.357 312.763,168.199C312.826,168.514 313.014,168.766 313.161,168.766C313.371,168.766 313.455,168.43 313.455,167.505ZM323.631,168.304C324.218,168.241 324.134,168.178 322.687,167.463C321.826,167.042 320.316,166.201 319.351,165.612C317.693,164.624 317.085,164.329 317.567,164.729C318.658,165.696 320.421,166.895 320.777,166.937C321.008,166.958 321.218,167.063 321.218,167.189C321.218,167.568 322.959,168.388 323.631,168.304ZM311.231,166.537C312.301,164.918 312.091,164.729 310.895,166.222C309.804,167.547 309.741,167.715 310.182,167.715C310.329,167.715 310.811,167.189 311.231,166.537ZM318.679,167.105C318.868,166.979 318.7,166.895 318.113,166.832C317.441,166.769 317.315,166.811 317.483,167.021C317.735,167.336 318.26,167.378 318.679,167.105ZM314.525,167.084C314.63,167.084 314.672,166.979 314.609,166.874C314.546,166.748 314.441,166.663 314.378,166.663C314.336,166.663 314.294,166.748 314.294,166.874C314.294,166.979 314.399,167.084 314.525,167.084ZM309.469,165.36C309.469,165.149 309.049,165.17 307.79,165.423C307.266,165.528 306.72,165.57 306.573,165.507C306.426,165.444 306.007,165.549 305.629,165.738L304.979,166.075L305.524,166.369C305.986,166.621 306.258,166.579 307.769,166.075C308.692,165.78 309.469,165.444 309.469,165.36ZM323.253,166.369C323.337,166.306 323.211,166.243 322.98,166.264C322.75,166.264 322.687,166.327 322.854,166.39C323.001,166.453 323.19,166.432 323.253,166.369ZM316.623,165.318C317.399,165.423 317.483,165.381 317.148,165.17C316.686,164.876 315.259,164.771 315.532,165.044C315.637,165.149 316.12,165.276 316.623,165.318ZM323.274,164.855C325.414,165.128 329.862,164.182 328.666,163.698C328.079,163.467 327.995,163.488 326.463,163.951C325.582,164.224 324.491,164.371 323.337,164.392C321.449,164.392 321.428,164.624 323.274,164.855ZM312.217,164.624C312.679,164.75 312.742,164.561 312.364,164.182C312.217,164.035 311.986,163.93 311.839,163.93C311.441,163.93 311.755,164.497 312.217,164.624ZM306.636,164.54C307.916,164.561 307.664,164.266 306.154,163.951C304.727,163.656 304.37,163.656 304.475,163.972C304.601,164.308 305.356,164.518 306.636,164.54ZM308.566,163.656C308.608,163.593 307.937,163.194 307.035,162.773C306.154,162.353 305.042,161.764 304.601,161.49C304.16,161.217 303.174,160.754 302.419,160.46C300.468,159.724 300.552,159.682 300.95,161.112C301.034,161.406 301.37,161.616 302.083,161.806C302.65,161.932 303.342,162.184 303.636,162.331C304.307,162.689 308.419,163.782 308.566,163.656ZM315.889,163.635C316.161,163.677 316.015,162.689 315.7,162.289C315.364,161.869 315.133,161.995 315.133,162.647C315.133,163.236 315.385,163.551 315.889,163.635ZM308.692,162.289C310.727,163.951 310.832,163.972 309.741,162.605C309.469,162.268 308.524,161.511 307.643,160.944C305.608,159.619 305.944,160.039 308.692,162.289ZM312.867,163.341C312.993,163.215 312.972,162.941 312.763,162.563C312.511,162.079 312.448,162.037 312.343,162.331C312.154,162.815 312.574,163.635 312.867,163.341ZM323.862,163.236C324.029,163.067 323.505,161.722 322.959,160.902C322.645,160.418 322.015,159.64 321.554,159.135C321.071,158.63 320.358,158.042 319.938,157.81L319.162,157.432L319.057,157.894C318.994,158.147 318.868,158.925 318.805,159.619C318.679,160.859 318.679,160.902 319.539,162.037C320.022,162.668 320.463,163.236 320.505,163.278C320.609,163.404 323.757,163.362 323.862,163.236ZM313.791,162.605C314.105,163.404 314.63,163.572 314.42,162.815C314.357,162.563 314.147,161.659 313.938,160.817C313.749,159.997 313.497,159.303 313.392,159.303C313.14,159.303 313.413,161.743 313.791,162.605ZM310.811,162.016C311.588,162.941 311.776,162.962 311.252,162.037C311.084,161.743 310.958,161.343 310.937,161.133C310.937,160.923 310.664,160.397 310.329,159.976C309.993,159.556 309.28,158.357 308.755,157.327C308.084,155.981 307.769,155.539 307.664,155.791C307.601,155.981 307.601,156.401 307.685,156.717C307.874,157.495 309.888,160.902 310.811,162.016ZM318.49,156.738C318.49,156.422 318.406,156.128 318.302,156.065C317.987,155.855 317.672,157.095 317.42,159.535C317.19,161.616 317.232,162.31 317.567,161.995C317.714,161.848 318.49,157.474 318.49,156.738ZM332.149,148.473L332.044,146.833C331.876,143.91 330.24,141.639 327.575,140.588C326.904,140.314 325.75,139.788 324.974,139.41C323.652,138.758 323.589,138.695 322.833,137.076C322.414,136.171 321.952,134.952 321.805,134.363L321.533,133.29L320.442,134.069C319.854,134.489 318.029,135.52 316.413,136.361C314.777,137.202 313.455,138.001 313.455,138.148C313.455,138.295 313.644,138.674 313.875,138.968C314.105,139.263 314.357,139.767 314.42,140.104C314.525,140.588 314.651,140.693 315.175,140.714C315.889,140.735 316.392,141.26 316.392,141.954C316.392,142.375 316.497,142.417 317.819,142.396C319.309,142.396 320.651,142.859 320.882,143.469C321.092,143.994 320.924,144.015 319.393,143.532C317.546,142.943 316.518,143.09 315.49,144.036C315.049,144.436 314.714,144.941 314.714,145.214C314.714,145.824 315.805,146.833 316.665,147.001C317.567,147.212 317.714,147.317 317.483,147.59C317.378,147.737 317.232,148.179 317.148,148.621L317.001,149.378L317.735,149.209C318.134,149.125 318.511,149.104 318.574,149.167C318.826,149.399 318.679,150.723 318.281,152.196C318.05,153.037 317.861,153.794 317.861,153.878C317.861,153.962 318.197,153.962 318.595,153.899L319.33,153.773L319.33,154.761C319.33,155.728 319.372,155.77 321.302,157.621C322.372,158.672 323.631,160.039 324.05,160.67C325.015,162.058 325.393,161.953 325.435,160.271C325.477,158.147 325.687,157.936 327.407,158.315C327.974,158.441 328.1,158.357 328.729,157.516C329.38,156.612 329.401,156.57 329.107,155.728C328.561,154.172 326.967,152.196 324.89,150.555L324.071,149.903L324.47,149.02C325.204,147.359 326.841,146.413 328.918,146.434C329.925,146.434 331.016,147.022 331.708,147.906L332.149,148.473ZM312.217,161.259C312.364,161.112 312.364,160.081 312.217,157.852C312.091,156.086 311.986,153.689 311.986,152.511C311.986,151.333 311.923,150.009 311.86,149.567C311.734,148.81 311.567,148.642 311.294,148.936C310.937,149.272 311.462,160.944 311.839,161.322C311.923,161.406 312.091,161.385 312.217,161.259ZM317.211,152.889C317.441,152.09 317.567,151.354 317.525,151.27C317.42,151.102 316.812,151.039 316.812,151.186C316.812,151.228 316.581,152.153 316.287,153.247C316.015,154.319 315.637,156.212 315.448,157.432C315.28,158.672 315.07,159.955 315.008,160.334C314.903,160.838 314.945,160.986 315.196,160.986C315.385,160.986 315.574,160.902 315.658,160.796C315.721,160.67 316.015,159.177 316.287,157.474C316.56,155.77 316.98,153.71 317.211,152.889ZM327.093,159.408C327.093,159.366 326.946,159.303 326.778,159.219C326.568,159.135 326.463,159.24 326.463,159.556C326.463,159.913 326.505,159.934 326.778,159.724C326.946,159.577 327.093,159.429 327.093,159.408ZM301.873,158.378C301.999,158.567 304.013,159.766 304.013,159.64C304.013,159.619 303.489,159.135 302.86,158.588C302.23,158.042 301.706,157.726 301.706,157.873C301.706,158.021 301.789,158.252 301.873,158.378ZM305.587,158.126L306.846,158.904L306.112,158.231C305.713,157.873 304.286,156.485 302.943,155.182C300.719,152.995 300.237,152.595 300.237,152.889C300.237,152.932 300.426,153.478 300.656,154.088C301.034,155.076 301.265,155.329 302.713,156.275C303.594,156.885 304.895,157.705 305.587,158.126ZM309.343,154.929C309.615,156.506 310.518,158.483 310.518,157.516C310.518,156.969 309.783,152.006 309.343,149.462C309.028,147.653 308.755,147.149 308.503,147.822C308.399,148.116 308.86,152.132 309.343,154.929ZM315.889,150.282C316.308,148.368 316.35,147.843 316.141,147.695C315.994,147.611 315.826,147.527 315.763,147.527C315.637,147.527 313.896,155.013 313.728,156.275C313.665,156.843 313.707,157.2 313.875,157.306C314,157.39 314.147,157.411 314.21,157.348C314.315,157.242 314.924,154.698 315.889,150.282ZM306.3,156.843L306.112,156.128C305.608,154.193 305.021,152.427 304.601,151.544C304.349,151.018 303.972,150.009 303.804,149.336C303.468,148.116 302.964,147.506 302.964,148.305C302.985,150.198 304.643,155.14 305.608,156.128L306.3,156.843ZM331.625,151.565C331.981,150.261 331.981,150.261 331.478,149.188C331.184,148.536 330.701,147.906 330.24,147.611C328.687,146.539 326.274,147.359 325.267,149.294C324.974,149.861 324.974,149.945 325.33,150.177C327.219,151.46 329.002,153.352 329.631,154.761C329.778,155.055 329.946,155.308 330.03,155.308C330.261,155.308 331.205,153.058 331.625,151.565ZM323.001,152.658C323.421,153.583 323.694,154.467 323.631,154.698C323.505,155.055 323.442,155.055 322.414,154.74C321.281,154.404 319.728,153.668 319.015,153.121C318.679,152.889 318.658,152.763 318.847,152.553C319.057,152.343 319.372,152.406 320.421,152.847C321.994,153.541 322.246,153.331 321.533,151.985C321.26,151.481 321.092,150.934 321.155,150.766C321.449,150.009 322.12,150.702 323.001,152.658ZM307.769,153.689L307.454,150.976C307.287,149.483 307.182,147.969 307.266,147.611C307.328,147.254 307.328,146.791 307.245,146.602C307.098,146.202 307.014,146.202 306.279,146.644C305.839,146.917 305.692,147.17 305.692,147.674C305.692,148.642 306.07,151.186 306.489,152.932L306.846,154.425L307.307,154.067L307.769,153.689ZM314.84,147.506C314.903,147.296 314.735,147.085 314.42,146.938L313.917,146.707L313.791,148.431C313.707,149.378 313.602,150.871 313.56,151.733L313.455,153.31L313.854,151.838C314.063,151.018 314.357,149.798 314.504,149.104C314.63,148.41 314.777,147.695 314.84,147.506ZM301.999,152.343C302.23,152.532 302.209,152.196 301.915,150.745C301.706,149.714 301.496,148.663 301.433,148.368C301.391,148.074 301.328,148.452 301.307,149.209C301.286,150.723 301.559,151.985 301.999,152.343ZM311.336,143.426L311.399,140.588L310.35,140.672L310.203,144.12C310.119,146.013 310.119,147.611 310.182,147.674C310.245,147.758 310.308,147.548 310.308,147.233C310.308,146.854 310.455,146.602 310.79,146.455C311.231,146.265 311.252,146.118 311.336,143.426ZM301.727,146.665C301.999,146.392 302.188,146.013 302.146,145.845C302.125,145.677 302.062,145.508 302.02,145.466C301.915,145.34 301.517,145.992 301.37,146.56L301.223,147.17L301.727,146.665ZM304.622,146.749C305.063,146.349 305.083,146.56 304.328,143.153C304.265,142.901 304.139,142.69 304.055,142.711C303.468,142.775 303.384,143.027 303.384,144.814C303.384,146.539 303.405,146.686 303.804,146.686C304.034,146.686 304.223,146.791 304.223,146.896C304.223,147.022 304.412,146.959 304.622,146.749ZM313.455,141.828C313.455,141.029 313.35,140.545 313.14,140.377C312.867,140.146 312.826,140.251 312.805,141.029C312.784,141.534 312.721,142.88 312.637,144.015C312.574,145.13 312.574,146.055 312.637,146.055C312.867,146.055 313.455,142.985 313.455,141.828ZM308.419,145.634C308.566,145.634 308.503,142.543 308.294,140.84C308.189,139.936 308.084,139.831 307.601,140.146C307.37,140.293 307.37,140.651 307.664,142.396C308.147,145.319 308.231,145.634 308.419,145.634ZM306.489,145.235C306.888,145.025 306.888,144.962 306.615,143.7C306.468,142.964 306.342,142.123 306.321,141.786C306.321,141.155 305.902,141.029 305.482,141.513C305.293,141.765 305.293,142.165 305.482,143.384C305.797,145.319 305.923,145.55 306.489,145.235ZM314.819,143.174C315.175,142.922 315.322,142.627 315.28,142.27C315.217,141.471 314.588,141.471 314.42,142.291C314.189,143.49 314.231,143.595 314.819,143.174ZM323.001,130.199C323.169,129.148 323.085,128.37 322.833,128.748C322.75,128.874 321.47,129.8 319.98,130.809C317.253,132.618 313.875,134.363 312.637,134.615C311.986,134.741 311.986,134.763 311.986,135.982C311.986,136.676 312.07,137.223 312.175,137.223C312.679,137.223 320.043,133.248 321.365,132.26C322.75,131.23 322.875,131.061 323.001,130.199ZM332.443,115.143C334.688,112.283 334.751,112.198 334.394,112.198C334.142,112.198 332.212,113.881 326.505,119.075C325.267,120.21 324.197,121.031 323.945,121.031C323.589,121.031 323.547,120.968 323.715,120.652C323.945,120.21 329.422,114.785 331.121,113.334C331.771,112.766 332.317,112.241 332.317,112.177C332.359,111.925 330.156,111.82 329.904,112.072C328.289,113.649 323.799,117.603 323.505,117.708C322.183,118.213 324.071,115.668 327.156,112.808L328.645,111.42L327.827,111.147C326.316,110.663 323.862,109.275 322.267,108.014L320.714,106.773L320.022,110.79C319.644,113.019 319.12,116.005 318.889,117.456C318.637,118.907 318.323,120.21 318.176,120.379C317.714,120.862 317.441,120.442 317.567,119.39C317.672,118.402 317.651,118.402 317.211,119.769C316.707,121.346 316.308,121.872 315.931,121.493C315.763,121.325 315.973,120.126 316.875,116.467C317.525,113.839 318.26,110.642 318.511,109.381C318.742,108.119 319.036,106.878 319.12,106.647C319.225,106.394 319.456,105.679 319.623,105.028C319.896,104.06 320.064,103.808 320.484,103.703C320.819,103.619 321.05,103.366 321.134,102.988C321.197,102.672 321.47,101.558 321.742,100.527C322.959,95.754 323.211,95.207 325.414,92.642C327.135,90.644 329.799,87.237 330.24,86.48C330.575,85.912 330.596,85.639 330.429,84.777C330.324,84.188 330.303,83.536 330.387,83.305C330.471,83.052 330.534,82.758 330.534,82.653C330.575,82.211 331.562,81.328 332.59,80.844C333.66,80.34 333.66,80.34 333.051,80.213C332.38,80.066 331.289,80.024 330.974,80.129C330.869,80.171 330.135,80.255 329.359,80.34C328.33,80.445 327.932,80.571 327.932,80.781C327.932,80.949 327.869,81.055 327.785,81.055C327.26,80.97 327.009,81.307 325.855,83.599C324.554,86.165 322.708,89.088 320.169,92.536C319.393,93.567 318.448,94.997 318.029,95.691C316.203,98.761 314.063,103.577 313.35,106.184C312.427,109.591 310.664,122.671 310.706,125.804C310.727,126.75 310.874,128.874 311.042,130.515C311.21,132.134 311.357,133.522 311.357,133.564C311.357,133.942 314.399,133.185 315.805,132.47C316.497,132.113 320.337,129.695 320.672,129.421C320.777,129.337 320.463,129.316 319.98,129.379C319.225,129.484 319.12,129.442 319.12,129.085C319.12,128.664 319.225,128.622 323.19,127.487C323.652,127.36 324.386,126.898 324.827,126.477C325.54,125.783 325.624,125.615 325.645,124.585C325.666,122.902 325.834,122.587 327.072,121.661C327.68,121.199 328.708,120.084 329.359,119.18C329.988,118.297 331.373,116.467 332.443,115.143ZM335.569,110.348C336.177,110.18 336.114,110.138 334.079,109.086C332.904,108.476 331.897,107.993 331.855,107.993C331.771,107.993 331.289,109.864 331.289,110.18C331.289,110.369 335.023,110.516 335.569,110.348ZM350.843,85.954C352.228,84.44 353.319,83.179 353.277,83.179C353.214,83.179 351.64,84.272 348.598,86.375C347.675,87.006 345.934,88.141 344.717,88.877C343.5,89.613 341.486,90.959 340.206,91.842C338.947,92.747 337.751,93.483 337.562,93.483C337.373,93.483 336.66,93.188 335.947,92.831C334.499,92.116 333.135,90.707 332.107,88.94C331.562,87.952 331.415,87.826 331.142,88.057C330.408,88.667 327.051,92.684 327.449,92.452C328.079,92.137 328.561,92.158 328.561,92.515C328.561,92.789 326.127,94.114 325.666,94.114C325.372,94.114 324.428,95.249 324.008,96.111C323.568,97.016 323.211,98.53 323.001,100.527C322.917,101.221 322.687,102.567 322.477,103.535C322.246,104.565 322.162,105.511 322.246,105.848C322.435,106.521 323.841,107.656 325.939,108.834C327.533,109.738 328.016,109.822 329.065,109.381C329.694,109.128 329.82,108.897 330.534,106.815C330.953,105.553 331.478,104.081 331.708,103.535C332.128,102.441 332.002,102.168 331.142,102.294C330.282,102.399 330.638,101.936 332.086,101.053C332.862,100.569 334.205,99.728 335.065,99.182C335.926,98.635 337.961,97.352 339.576,96.322C342.073,94.765 342.954,94.05 345.409,91.611C347.004,90.034 349.458,87.489 350.843,85.954ZM349.081,94.429C349.123,94.387 349.06,94.008 348.934,93.567C348.829,93.104 348.619,92.347 348.493,91.842C348.367,91.359 348.2,90.959 348.116,90.959C348.032,90.959 347.025,91.906 345.871,93.02C343.689,95.165 342.325,96.174 339.346,97.92C338.359,98.488 337.017,99.35 336.366,99.854C335.716,100.338 334.94,100.906 334.646,101.074C334.352,101.263 333.995,101.789 333.828,102.231C333.66,102.672 333.324,103.492 333.072,104.018C332.254,105.743 332.296,105.785 333.765,104.418C337.038,101.305 338.192,100.506 344.192,97.163C345.066,96.68 345.889,96.222 346.601,95.823C348.058,95.008 349.053,94.443 349.081,94.429ZM468.001,52.581C468.253,51.972 467.896,51.257 467.246,51.025C466.512,50.773 466.071,50.878 465.442,51.467C465.001,51.866 464.98,51.866 464.539,51.088C464.288,50.668 464.099,50.31 464.141,50.289C464.183,50.268 464.77,50.142 465.442,49.995C466.889,49.7 467.456,49.28 467.456,48.46C467.456,47.766 466.407,46.798 465.651,46.798C464.728,46.798 463.742,47.345 463.448,48.039C463.281,48.397 463.113,48.691 463.05,48.691C462.924,48.67 461.749,46.988 461.833,46.925C461.875,46.904 462.315,46.693 462.819,46.483C463.323,46.273 463.868,45.873 464.015,45.621C464.623,44.717 463.574,43.644 462.064,43.644C461.392,43.644 460.322,44.212 460.322,44.59C460.322,45.095 459.882,45.179 459.441,44.759C459.021,44.338 459.021,44.338 459.777,43.875C460.7,43.308 460.994,42.445 460.427,42.025C459.693,41.499 458.161,41.92 457.532,42.803C457.217,43.266 457.196,43.266 456.105,42.908C454.091,42.235 448.153,42.824 445.657,43.939C444.796,44.317 440.6,48.796 439.027,51.004C437.222,53.528 434.033,57.46 431.746,59.984C430.005,61.897 428.809,62.865 424.235,65.935C419.808,68.921 413.849,73.926 411.982,76.218C410.22,78.384 409.884,78.699 409.8,78.3C409.758,78.111 409.926,77.564 410.178,77.08C410.429,76.596 410.597,76.176 410.555,76.155C410.513,76.134 409.317,75.987 407.87,75.839C406.422,75.713 404.639,75.503 403.883,75.398C399.016,74.746 397.316,74.557 394.232,74.43C392.197,74.346 389.217,74.388 386.994,74.536L383.217,74.788L381.538,76.512C380.573,77.522 379.461,78.447 378.916,78.699C378.014,79.141 377.825,79.141 373.775,78.973C369.621,78.783 366.369,78.826 362.131,79.078L359.928,79.225L358.459,80.655L356.97,82.085L358.564,82.211C359.97,82.316 361.837,82.211 364.649,81.812C365.803,81.643 375.936,82.043 377.237,82.316C377.762,82.421 379.272,82.632 380.594,82.758C381.916,82.905 384.287,83.2 385.84,83.41C387.392,83.641 389.721,83.957 390.98,84.125C393.707,84.503 399.393,85.807 400.715,86.375C401.554,86.732 405.037,87.679 407.891,88.331C408.562,88.478 409.926,88.583 410.933,88.562C412.695,88.52 412.863,88.478 414.164,87.679C414.919,87.237 416.325,86.102 417.311,85.155C418.297,84.209 420.081,82.611 421.298,81.601C423.417,79.835 423.92,79.541 427.99,77.69C428.83,77.311 430.152,76.491 430.928,75.881C431.683,75.272 432.858,74.473 433.508,74.136C434.641,73.526 434.746,73.505 435.313,73.8C435.774,74.052 435.9,74.262 435.921,74.851C435.963,76.029 434.117,77.543 430.361,79.456C426.543,81.391 423.459,83.662 419.934,87.132C417.143,89.887 415.234,91.254 413.178,91.948C412.339,92.242 411.877,92.242 409.674,92.032C405.667,91.653 402.624,90.938 399.246,89.592C395.428,88.099 391.043,87.027 387.413,86.753C385.923,86.627 383.322,86.354 381.643,86.123C377.531,85.555 371.048,85.26 366.243,85.387C364.082,85.45 362.236,85.534 362.152,85.597C362.047,85.639 360.033,85.828 357.662,86.017C355.27,86.186 353.109,86.417 352.857,86.522C352.585,86.627 351.934,87.174 351.41,87.742C350.256,88.94 350.067,89.74 350.528,91.296L350.843,92.347L352.228,92.158C354.221,91.906 360.746,92.305 364.859,92.957C366.768,93.251 370.502,93.819 373.146,94.24C375.811,94.639 381.895,95.628 386.679,96.427C391.462,97.205 396.141,97.92 397.064,97.983C398.827,98.109 402.897,98.908 407.135,100.002C408.667,100.38 410.199,100.633 411.017,100.633C412.884,100.633 415.842,100.128 417.857,99.455C420.186,98.698 424.277,96.658 426.249,95.27C427.151,94.639 429.459,93.083 431.368,91.842C433.278,90.581 435.921,88.73 437.243,87.721C438.565,86.69 442.845,83.452 446.769,80.508C450.671,77.564 454.49,74.662 455.266,74.052C458.644,71.381 460.196,70.393 461.791,69.93C464.602,69.11 465.693,68.521 466.386,67.428C467.561,65.556 467.771,61.161 466.847,57.145C466.47,55.525 466.47,55.378 466.784,55.294C467.75,54.979 468.085,54.768 468.085,54.453C468.085,54.159 467.917,54.117 467.036,54.222C466.155,54.327 465.966,54.285 465.777,53.948C465.421,53.275 465.526,53.065 466.155,53.212C466.868,53.359 467.833,53.023 468.001,52.581ZM335.989,91.59C336.765,91.59 335.485,86.753 334.289,85.197C333.408,84.041 332.883,83.767 332.149,84.041C331.708,84.209 331.687,84.314 331.813,85.029C332.296,87.616 334.835,91.59 335.989,91.59ZM338.276,90.98C338.674,90.602 338.737,90.307 338.716,89.046C338.674,87.805 338.548,87.3 337.94,86.059C337.52,85.218 336.681,83.999 336.073,83.326C335.191,82.379 334.814,82.127 334.331,82.127C333.135,82.127 333.03,82.421 333.953,83.326C335.506,84.861 337.164,88.478 337.164,90.37C337.164,91.38 337.625,91.632 338.276,90.98ZM433.991,76.155C435.019,75.209 435.187,74.956 434.935,74.767C434.348,74.367 433.907,74.557 431.788,76.134C430.508,77.101 428.725,78.174 427.256,78.868C424.55,80.15 422.41,81.749 418.486,85.492C417.164,86.732 415.465,88.099 414.584,88.646L413.01,89.571L411.017,89.529C408.877,89.487 403.631,88.331 400.925,87.321C397.736,86.123 392.7,85.176 380.909,83.62C374.552,82.779 367.481,82.632 359.781,83.2L355.627,83.494L354.368,84.756L358.208,84.587C360.306,84.503 365.614,84.419 369.999,84.398C377.153,84.377 378.265,84.419 380.804,84.819C382.357,85.05 385,85.366 386.679,85.492C391.085,85.828 395.764,86.922 399.687,88.541C402.289,89.613 405.457,90.286 410.01,90.77L412.485,91.043L414.311,90.097C415.884,89.319 416.598,88.751 418.99,86.438C422.598,82.926 425.557,80.823 429.585,78.868C431.977,77.69 433.026,77.059 433.991,76.155ZM368.132,71.55C369.286,70.498 369.306,70.456 369.202,69.531C369.118,68.711 368.95,68.437 368.194,67.785C367.166,66.902 366.873,66.818 365.257,67.007C364.439,67.091 363.327,67.512 361.46,68.416C360.012,69.131 358.753,69.72 358.669,69.72C358.501,69.72 349.312,74.325 346.08,76.029C344.822,76.702 341.905,78.111 339.618,79.183L335.485,81.139L336.052,81.559C336.765,82.064 338.296,84.146 338.758,85.218C339.22,86.312 339.702,87.952 339.87,89.025L339.996,89.929L342.619,88.31C344.066,87.426 346.92,85.66 348.976,84.419C351.032,83.179 355.333,80.361 358.522,78.195C361.711,76.008 364.921,73.863 365.635,73.421C366.369,73.001 367.481,72.159 368.132,71.55ZM350.151,66.818C350.424,66.292 350.382,66.25 349.962,66.629C349.794,66.797 348.85,67.218 347.864,67.596C346.878,67.954 345.892,68.353 345.661,68.458C345.43,68.584 344.255,69.005 343.059,69.426C340.458,70.309 338.569,71.234 337.625,72.054C336.639,72.916 334.289,75.797 333.911,76.575C333.744,76.954 333.597,77.438 333.597,77.69C333.597,77.942 333.471,78.153 333.345,78.153C332.778,78.216 335.002,78.531 336.073,78.531C336.849,78.552 337.457,78.405 338.171,78.026C338.716,77.753 340.437,76.912 341.989,76.176C344.465,74.998 344.968,74.683 345.976,73.568C346.941,72.538 348.64,69.783 350.151,66.818ZM384.476,72.075C384.832,71.865 384.749,71.844 383.951,71.865C383.427,71.886 381.266,71.97 379.126,72.033C375.16,72.138 374.111,72.349 374.678,72.895C374.804,73.043 374.929,73.253 374.929,73.358C374.929,73.61 373.02,73.379 371.824,72.979C369.831,72.286 369.369,72.328 368.174,73.232C367.565,73.673 366.642,74.304 366.117,74.599C365.383,75.019 363.872,76.155 362.404,77.375C362.404,77.396 363.235,77.417 364.292,77.417C365.362,77.417 368.593,77.501 371.489,77.606L376.755,77.774L377.888,77.206C378.517,76.891 379.587,76.092 380.28,75.419C381.475,74.262 383.574,72.58 384.476,72.075ZM496.829,73.211L496.724,71.718C496.158,64.042 495.948,62.654 494.899,58.995C493.242,53.212 490.577,48.397 486.087,42.992C485.08,41.751 484.241,40.658 484.241,40.574C484.241,40.469 483.716,39.333 483.087,38.071C482.457,36.789 481.555,34.77 481.094,33.55C480.044,30.795 479.121,29.408 476.52,26.779C475.408,25.643 474.443,24.718 474.38,24.718C474.317,24.718 473.771,24.949 473.142,25.244C471.904,25.833 468.904,28.608 467.833,30.165L467.183,31.09L467.687,31.468C468.274,31.931 468.61,31.952 469.848,31.616C470.645,31.405 470.855,31.426 471.316,31.721C472.449,32.478 471.841,33.697 469.806,34.77C468.232,35.611 467.498,35.611 465.777,34.791L464.414,34.139L463.49,35.169C461.77,37.083 461.35,37.756 461.602,38.24C461.833,38.639 461.98,38.66 464.896,38.534C468.295,38.408 468.337,38.429 470.54,40.216C471.778,41.226 472.072,42.004 472.072,44.128C472.072,45.915 472.051,45.957 470.834,48.355C469.638,50.689 469.596,50.815 469.596,52.455C469.575,54.516 469.638,54.579 472.135,54.579L473.897,54.579L474.443,53.254C474.736,52.539 475.03,51.656 475.114,51.32C475.408,50.016 476.457,49.532 477.212,50.373C477.674,50.899 477.527,52.119 476.771,53.738C476.31,54.726 476.289,54.831 476.667,54.495C476.897,54.285 477.401,53.486 477.82,52.708C478.219,51.93 478.765,51.109 478.995,50.899C479.415,50.521 479.478,50.521 480.002,50.815C480.443,51.067 480.569,51.278 480.548,51.803C480.506,52.413 479.394,54.474 478.932,54.81C478.765,54.937 479.247,55.21 479.625,55.21C480.044,55.21 481.114,54.053 481.723,52.939C482.709,51.193 482.877,51.13 483.842,52.077C484.492,52.708 484.492,52.75 484.241,53.591C484.073,54.18 483.611,54.853 482.835,55.589L481.681,56.724L482.185,57.061C482.982,57.628 486.591,60.593 487.409,61.329C487.954,61.855 488.374,62.591 488.919,64.042C489.696,66.061 491.164,71.171 491.164,71.823C491.164,72.391 492.213,74.115 492.759,74.494C493.43,74.914 494.312,74.746 495.738,73.884L496.829,73.211ZM446.412,66.04C446.978,66.439 446.978,67.365 446.412,67.996C446.181,68.248 445.531,68.605 444.985,68.753C443.495,69.194 442.887,69.573 441.02,71.192C439.152,72.811 438.355,73.295 437.621,73.295C436.886,73.295 436.194,72.727 436.194,72.096C436.194,71.528 436.719,70.961 439.593,68.437C441.418,66.818 441.775,66.629 443.391,66.271C444.188,66.124 444.88,65.914 444.943,65.851C445.174,65.619 445.95,65.724 446.412,66.04ZM398.554,38.282C398.827,37.714 398.995,37.209 398.953,37.167C398.848,37.062 396.98,38.597 396.54,39.123C395.973,39.817 394.442,40.406 393.456,40.3C393.036,40.258 391.924,39.018 391.924,38.576C391.924,38.261 391.253,38.681 388.924,40.427C382.483,45.305 381.329,46.104 376.902,48.544C373.838,50.247 372.412,50.836 364.775,53.444C361.124,54.684 360.662,54.684 363.809,53.423C368.992,51.383 373.629,49.238 376.608,47.534C378.265,46.588 379.168,45.936 383.951,42.298C384.937,41.541 386.091,40.679 386.553,40.343C386.994,40.027 387.896,39.333 388.567,38.807C389.217,38.282 389.994,37.693 390.267,37.504C390.686,37.188 390.728,37.104 390.455,36.936C390.036,36.641 390.078,36.62 388.819,37.462C386.889,38.723 382.525,41.121 378.601,43.055C376.524,44.086 374.405,45.158 373.88,45.453C371.656,46.672 368.782,47.955 366.369,48.817C364.942,49.322 363.726,49.742 363.642,49.742C363.558,49.721 365.173,48.901 367.208,47.871C370.649,46.147 372.58,44.99 372.349,44.759C372.202,44.632 370.083,45.263 368.446,45.936C367.691,46.252 366.159,46.819 365.068,47.198C362.53,48.081 360.641,49.112 359.823,50.121C359.278,50.794 353.109,62.844 353.109,63.264C353.109,63.537 350.13,70.056 349.333,71.528L348.514,73.022L350.654,72.138C352.794,71.234 359.634,68.08 359.823,67.869C359.886,67.827 359.278,67.827 358.459,67.912L356.991,68.038L357.725,67.701C358.669,67.281 363.621,65.809 365.551,65.409C365.761,65.367 366.747,65.073 367.754,64.757C368.761,64.442 370.481,63.916 371.572,63.58C372.663,63.243 374.426,62.696 375.454,62.381C376.503,62.044 378.244,61.519 379.335,61.203C380.426,60.888 381.434,60.614 381.538,60.572C381.937,60.467 390.98,54.327 392.239,53.296C393.372,52.413 396.624,49.154 398.009,47.555L398.533,46.946L397.904,47.303C397.568,47.492 396.519,48.123 395.596,48.712C394.148,49.616 393.812,49.742 393.183,49.637C392.071,49.427 391.106,48.754 390.917,48.039L390.77,47.408L388.609,48.88C387.434,49.7 385.882,50.668 385.147,51.025C384.434,51.404 383.469,51.951 383.007,52.245C381.245,53.423 377.93,55.21 377.237,55.336C376.839,55.42 376.167,55.652 375.769,55.841C374.195,56.619 367.775,58.785 365.215,59.395C361.858,60.194 361.271,60.215 363.6,59.437C364.586,59.1 366.18,58.491 367.166,58.07C368.153,57.67 370.922,56.577 373.335,55.631C375.936,54.621 378.433,53.507 379.524,52.855C382.629,50.983 390.288,46.147 391.714,45.158C393.812,43.707 397.967,39.522 398.554,38.282ZM444.062,68.353C445.468,67.954 446.076,67.512 445.908,67.07C445.782,66.734 445.3,66.734 444.062,67.028C443.6,67.133 442.992,67.26 442.719,67.323C442.446,67.386 441.691,67.933 441.041,68.542C440.39,69.152 439.446,69.972 438.922,70.372C437.201,71.676 436.782,72.454 437.852,72.286C438.208,72.243 439.027,71.697 439.866,70.94C441.754,69.257 442.572,68.774 444.062,68.353ZM437.285,26.716L437.138,24.297C436.97,21.248 436.467,16.517 436.173,15.192C436.047,14.645 435.564,14.499 435.459,14.499C435.312,14.499 435.565,15.507 435.67,18.073C435.774,20.702 435.753,22.384 435.586,23.288C435.46,24.024 435.208,25.433 435.04,26.442C434.662,28.608 433.781,30.795 431.536,35.211C427.676,42.845 423.312,47.976 416.367,53.107C415.213,53.948 413.912,54.937 413.451,55.273C413.01,55.61 412.234,56.03 411.709,56.177C411.185,56.346 410.639,56.556 410.513,56.661C410.052,57.04 402.247,60.846 400.002,61.792C396.309,63.348 391.001,65.388 387.833,66.482L384.895,67.491L377.972,67.575C374.174,67.617 371.027,67.68 371.006,67.701C370.964,67.722 371.132,68.122 371.363,68.563C371.593,69.026 371.782,69.552 371.782,69.741C371.782,70.204 374.908,70.456 380.175,70.456C383.448,70.435 384.581,70.351 387.518,69.846C390.749,69.278 394.505,68.206 395.575,67.512C395.806,67.365 397.295,66.734 398.848,66.124C407.114,62.928 415.528,58.343 419.304,55C421.444,53.086 425.284,49.28 425.536,48.817C425.662,48.607 426.375,47.598 427.109,46.609C428.851,44.296 431.18,40.763 432.711,38.092C433.991,35.863 434.767,34.034 436.32,29.513L437.285,26.716ZM370.733,70.141C371.09,70.141 370.964,69.299 370.481,68.437C370.23,67.975 369.957,67.617 369.852,67.617C369.747,67.617 369.831,67.848 369.999,68.122C370.188,68.395 370.377,68.9 370.397,69.236C370.439,69.552 370.481,69.888 370.502,69.972C370.502,70.077 370.628,70.141 370.733,70.141ZM379.084,66.923C379.629,66.881 379.168,66.86 378.077,66.86C376.986,66.86 376.524,66.881 377.09,66.923C377.636,66.965 378.517,66.965 379.084,66.923ZM433.215,12.458C433.142,12.417 427.53,11.916 420.298,13.787C415.233,15.097 409.285,18.148 404.265,20.867C393.253,26.832 383.464,39.607 383.805,39.388C384.33,39.052 388.735,36.242 389.826,35.569C390.917,34.917 392.344,33.992 392.973,33.529C395.071,32.015 395.533,31.847 397.106,31.994C398.239,32.12 398.617,32.267 399.225,32.793C400.044,33.508 400.526,34.475 400.526,35.443C400.526,36.452 399.519,38.66 398.407,40.111L397.379,41.436L398.092,41.499C398.617,41.541 399.037,41.836 399.792,42.614L400.799,43.665L400.652,45.179C400.526,46.672 400.233,47.345 399.393,48.186C399.142,48.418 398.134,49.469 397.148,50.5C392.218,55.631 386.175,60.131 381.916,61.813C381.098,62.15 380.322,62.339 380.196,62.276C380.07,62.192 379.671,62.297 379.293,62.486C378.916,62.696 376.566,63.537 374.09,64.379C369.978,65.746 369.663,65.893 370.314,66.04C370.712,66.124 374.111,66.208 377.867,66.208C383.595,66.208 384.811,66.145 385.42,65.872C385.819,65.703 387.098,65.241 388.252,64.862C390.455,64.147 398.554,60.972 401.009,59.857C401.806,59.5 405.058,57.902 408.247,56.325C413.618,53.633 414.269,53.254 417.143,51.046C423.689,45.999 425.662,43.623 430.298,35.19C433.97,28.524 434.411,26.653 434.264,18.388C434.222,15.676 434.117,13.32 434.033,13.152C433.949,12.984 433.571,12.668 433.215,12.458M447.419,62.675C448.384,61.687 450.251,62.255 450.251,63.516C450.251,64.673 448.195,65.346 447.314,64.463C446.748,63.895 446.789,63.285 447.419,62.675ZM449.328,64.168C449.727,64.021 449.706,63.075 449.286,62.907C448.552,62.633 448.153,62.801 448.153,63.432C448.153,63.874 448.888,64.337 449.328,64.168ZM357.641,51.803C357.914,51.278 357.914,51.151 357.536,50.436C357.326,49.995 356.907,49.07 356.613,48.376C356.319,47.682 355.753,46.336 355.354,45.39C354.62,43.707 354.578,43.476 354.242,39.333C354.074,37.146 353.277,36.494 350.004,35.926C348.137,35.59 347.801,35.464 347.591,35.043C347.444,34.77 347.171,34.433 346.962,34.307C346.647,34.118 346.479,34.181 346.059,34.686C345.766,35.001 345.514,35.254 345.493,35.211C345.472,35.169 345.346,34.938 345.22,34.707C344.989,34.265 344.297,34.055 344.024,34.307C343.94,34.391 343.877,34.728 343.877,35.043C343.877,35.821 343.458,35.926 342.912,35.275C342.304,34.539 341.674,34.77 341.863,35.653C342.01,36.41 341.632,36.494 341.045,35.863C340.583,35.359 340.185,35.317 340.017,35.779C339.807,36.305 339.87,36.494 340.206,36.494C340.667,36.494 340.835,37.083 340.479,37.504C340.311,37.693 340.164,38.156 340.143,38.513C340.122,38.871 339.87,39.733 339.576,40.448C338.758,42.466 338.842,42.95 340.311,44.569C340.982,45.326 341.695,46.231 341.884,46.588C342.052,46.925 342.723,47.787 343.353,48.502C343.982,49.217 344.906,50.457 345.388,51.257C345.892,52.056 347.067,53.717 348.032,54.958C349.039,56.282 350.277,58.238 351.011,59.668C352.165,61.918 352.689,62.696 352.689,62.192C352.689,62.002 356.97,53.002 357.641,51.803ZM483.003,53.696C483.317,53.065 483.338,52.897 483.108,52.897C482.961,52.897 482.709,53.17 482.583,53.507C482.226,54.327 480.947,55.546 479.94,55.967C479.373,56.219 479.226,56.367 479.457,56.409C480.275,56.598 482.331,55.021 483.003,53.696ZM479.52,52.098C479.751,51.278 479.331,51.593 478.807,52.623C478.513,53.191 477.925,54.074 477.464,54.642C476.52,55.799 476.499,56.346 477.443,55.568C478.051,55.042 479.205,53.128 479.52,52.098ZM476.687,51.151C476.687,50.962 476.604,50.794 476.499,50.794C476.184,50.794 475.911,51.278 475.764,52.056C475.701,52.455 475.345,53.402 475.009,54.138C474.652,54.874 474.401,55.525 474.443,55.568C474.484,55.61 474.778,55.441 475.072,55.21C475.575,54.81 476.687,52.056 476.687,51.151ZM469.848,47.513C470.54,46.126 470.603,45.873 470.603,44.107C470.603,41.983 470.561,41.878 468.862,40.616C467.75,39.775 467.561,39.754 465.568,40.216C464.812,40.385 463.742,40.469 463.155,40.427C462.253,40.343 462.064,40.385 461.749,40.805C461.392,41.268 461.392,41.289 461.875,41.415C462.169,41.478 462.84,41.983 463.365,42.53C463.91,43.076 464.77,43.77 465.274,44.086C466.973,45.179 468.19,46.588 468.589,47.913C468.799,48.586 468.987,49.112 469.029,49.07C469.071,49.028 469.428,48.334 469.848,47.513ZM396.288,47.219C399.729,44.864 400.128,44.233 398.827,43.139C398.051,42.466 397.925,42.466 396.792,43.118C394.715,44.296 392.533,46.273 392.155,47.282C391.882,47.997 391.966,48.165 392.763,48.586C393.54,48.985 393.938,48.838 396.288,47.219ZM398.785,35.632C399.372,34.938 399.393,34.097 398.848,33.55C398.155,32.856 397.547,33.024 395.743,34.497C394.127,35.8 393.309,36.684 392.784,37.693C392.281,38.66 393.351,39.67 394.505,39.312C394.987,39.165 398.009,36.557 398.785,35.632ZM395.994,32.94C396.435,32.457 396.267,32.373 395.596,32.751C394.715,33.214 392.407,34.833 391.609,35.548C390.791,36.242 390.791,36.263 391.316,36.284C391.63,36.284 392.197,35.99 392.679,35.59C393.12,35.211 393.98,34.56 394.547,34.139C395.134,33.718 395.785,33.172 395.994,32.94ZM470.204,33.277C470.792,32.583 470.687,32.457 469.848,32.814C468.883,33.214 468.085,33.214 467.519,32.814C466.868,32.352 466.092,32.099 465.84,32.246C465.526,32.457 465.337,33.193 465.526,33.466C465.819,33.929 467.141,34.602 467.771,34.602C468.463,34.602 469.617,33.971 470.204,33.277ZM339.828,33.971C340.604,33.971 341.612,33.571 341.444,33.319C341.234,32.982 340.164,33.13 339.66,33.55L339.157,33.95L339.828,33.971ZM343.248,33.235C343.248,33.067 343.059,32.919 342.828,32.919C342.598,32.919 342.409,33.067 342.409,33.235C342.409,33.403 342.598,33.55 342.828,33.55C343.059,33.55 343.248,33.403 343.248,33.235ZM359.299,26.59C359.299,26.148 359.131,26.043 358.04,25.727C356.676,25.349 355.354,25.307 352.899,25.58C351.41,25.727 350.319,26.001 346.92,27.052C345.724,27.41 344.864,27.515 342.304,27.536C339.513,27.578 339.031,27.641 338.066,28.062C337.352,28.377 336.954,28.693 336.954,28.903C336.954,29.281 337.751,31.679 338.255,32.877C338.548,33.55 338.569,33.55 338.926,33.151C339.534,32.478 340.625,32.225 342.409,32.331C343.668,32.415 344.171,32.541 344.612,32.877C345.43,33.529 345.808,33.466 346.857,32.52C349.5,30.101 352.773,28.587 357.41,27.662C359.047,27.347 359.299,27.199 359.299,26.59Z"></path>
            </g>
        </g>
    </g>
</svg>
